<svg width="40" height="50" viewBox="0 0 40 50" fill="none" xmlns="http://www.w3.org/2000/svg">
<path d="M23.393 10.7504L21.5598 10.4413C17.0142 9.67341 13.9549 5.29825 14.7299 0.769515C14.7714 0.527701 14.9076 0.312186 15.1085 0.170349C15.3095 0.0285109 15.5588 -0.0280407 15.8017 0.0131252L17.6349 0.324128C22.1805 1.09204 25.2398 5.46719 24.4648 9.99401C24.4445 10.1139 24.4007 10.2285 24.3358 10.3315C24.2709 10.4344 24.1862 10.5236 24.0866 10.5938C23.987 10.6641 23.8745 10.7141 23.7555 10.741C23.6365 10.7678 23.5133 10.771 23.393 10.7504V10.7504Z" fill="#3E7739"/>
<path d="M19.5971 49.2457C30.4203 49.2457 39.1942 40.5079 39.1942 29.7293C39.1942 18.9507 30.4203 10.2129 19.5971 10.2129C8.77392 10.2129 0 18.9507 0 29.7293C0 40.5079 8.77392 49.2457 19.5971 49.2457Z" fill="url(#paint0_radial_8447_10772)"/>
<path d="M25.681 48.2801C26.1629 48.1226 26.6449 47.9499 27.0998 47.7579C22.3039 48.9179 17.245 48.2331 12.934 45.8402C8.62305 43.4474 5.37736 39.5228 3.84548 34.8505C2.31359 30.1783 2.6083 25.1024 4.67074 20.6371C6.73317 16.1718 10.4115 12.6459 14.9707 10.7639C14.4849 10.8829 13.9997 11.0205 13.5152 11.1767C8.60469 12.8075 4.54149 16.3069 2.21277 20.9108C-0.115945 25.5148 -0.521013 30.8493 1.08601 35.7496C2.69303 40.65 6.18161 44.7181 10.79 47.0658C15.3985 49.4135 20.7524 49.85 25.6829 48.2801H25.681Z" fill="#FEBB12"/>
<path d="M32.8405 37.9287C33.1546 37.8747 33.4765 37.8878 33.7851 37.9671C34.0815 38.0468 34.3619 38.1767 34.614 38.351C34.8666 38.5272 35.082 38.7509 35.2482 39.0095C35.4258 39.2789 35.5447 39.5823 35.5971 39.9003C35.6458 40.2165 35.6304 40.5393 35.5519 40.8495C35.4735 41.1597 35.3335 41.4512 35.1403 41.7068C32.2654 44.8821 28.7506 46.8115 24.5957 47.4949C19.6659 48.305 15.1782 47.2658 11.1326 44.3772C7.08695 41.4886 4.65739 37.5902 3.84389 32.6819C3.03297 27.7891 4.07779 23.3275 6.97835 19.2973C9.87891 15.2671 13.7922 12.8398 18.7181 12.0156C22.9321 11.3219 26.9681 12.079 30.8261 14.2867C31.0725 14.4634 31.2791 14.6894 31.4328 14.9503C31.5865 15.2111 31.6838 15.501 31.7186 15.8014C31.7748 16.1197 31.7669 16.446 31.6955 16.7613C31.6208 17.0584 31.49 17.3385 31.3099 17.5868C31.1289 17.8368 30.8995 18.0483 30.6352 18.2088C30.3614 18.377 30.0567 18.4892 29.7388 18.539C29.1307 18.6269 28.5116 18.4844 28.0039 18.1397C26.7375 17.4416 25.3626 16.9595 23.9364 16.7133C22.4647 16.4627 20.9609 16.4627 19.4892 16.7133C15.8677 17.3084 12.9845 19.0957 10.8396 22.0752C8.71908 25.0189 7.95827 28.2946 8.55715 31.9025C9.15602 35.5104 10.934 38.3766 13.8911 40.5012C16.8649 42.6244 20.171 43.3872 23.8092 42.7895C26.7977 42.3387 29.5295 40.8486 31.52 38.5833C31.8852 38.2395 32.3449 38.0116 32.8405 37.9287V37.9287Z" fill="url(#paint1_linear_8447_10772)"/>
<path d="M27.7863 34.0622C27.9703 34.0062 28.1643 33.9905 28.355 34.0161C28.5381 34.0401 28.7156 34.096 28.8793 34.1812C29.0438 34.2674 29.1893 34.3856 29.3072 34.5287C29.4325 34.6772 29.5245 34.8507 29.5771 35.0374C29.63 35.2228 29.645 35.4169 29.6211 35.6082C29.5973 35.7994 29.5351 35.984 29.4383 36.1509C28.0299 38.2036 25.9454 39.7016 23.5453 40.3859C22.1723 40.7883 20.733 40.9169 19.3099 40.7643C17.8868 40.6118 16.508 40.1812 15.2523 39.4971C13.9967 38.813 12.8889 37.8889 11.9924 36.7777C11.096 35.6666 10.4285 34.3901 10.0282 33.0216C9.21922 30.2603 9.54352 27.2921 10.9299 24.7686C12.3163 22.2451 14.6515 20.3726 17.4229 19.5621C19.8968 18.8403 22.3701 18.9996 24.8427 20.0402C25.003 20.1287 25.143 20.2496 25.2539 20.395C25.3647 20.5404 25.444 20.7073 25.4865 20.8849C25.5444 21.071 25.5634 21.267 25.5424 21.4608C25.522 21.6447 25.4653 21.8228 25.3757 21.9849C25.286 22.1469 25.1652 22.2898 25.02 22.4053C24.8674 22.5247 24.6934 22.6139 24.5072 22.6683C24.1496 22.7652 23.7684 22.7248 23.4393 22.5551C22.629 22.2289 21.7695 22.0401 20.8966 21.9964C19.9966 21.9537 19.0958 22.0634 18.2325 22.3208C17.2221 22.614 16.2796 23.103 15.4593 23.7597C14.639 24.4164 13.957 25.2279 13.4523 26.1477C12.9476 27.0675 12.6302 28.0774 12.5183 29.1197C12.4064 30.1619 12.5022 31.2158 12.8003 32.2211C13.2247 33.6634 14.0496 34.9569 15.1801 35.9526C16.3105 36.9483 17.7004 37.6057 19.1896 37.8491C20.6788 38.0924 22.2068 37.9119 23.5974 37.3281C24.9881 36.7444 26.1849 35.7813 27.0499 34.5498C27.2415 34.3183 27.4978 34.1486 27.7863 34.0622Z" fill="white"/>
<defs>
<radialGradient id="paint0_radial_8447_10772" cx="0" cy="0" r="1" gradientUnits="userSpaceOnUse" gradientTransform="translate(13.0255 11.2841) scale(63.601 63.339)">
<stop stop-color="#FDD900"/>
<stop offset="0.52" stop-color="#F78F1F"/>
<stop offset="1" stop-color="#FDD900"/>
</radialGradient>
<linearGradient id="paint1_linear_8447_10772" x1="3.67222" y1="27.6369" x2="36.6748" y2="31.5826" gradientUnits="userSpaceOnUse">
<stop stop-color="#F15A29"/>
<stop offset="1" stop-color="#F7941D"/>
</linearGradient>
</defs>
</svg>
