<svg aria-hidden="true"
     style="position: absolute; width: 0; height: 0; overflow: hidden;"
     version="1.1" xmlns="http://www.w3.org/2000/svg"
     xmlns:xlink="http://www.w3.org/1999/xlink">
    <defs>
        <symbol id="icon-airplane" viewBox="0 0 32 32">
            <path d="M4.776 25.247h22.485v2.753h-22.485v-2.753zM27.936 12.359c-0.035-0.245-0.121-0.48-0.252-0.689s-0.306-0.389-0.511-0.527c-0.205-0.138-0.437-0.231-0.681-0.273s-0.494-0.032-0.733 0.028l-6.285 1.961-8.165-8.86-2.284 0.703 4.9 9.867-5.876 1.837-2.332-2.12-1.716 0.533 2.153 4.351 0.911 1.831 1.893-0.592 17.712-5.504c0.485-0.198 0.881-0.565 1.114-1.034s0.287-1.006 0.153-1.512z"></path>
        </symbol>
        <symbol id="icon-arrow-right" viewBox="0 0 32 32">
            <path d="M4.13 17.329v-2.659h19.969l-6.213-6.213 1.886-1.886 9.428 9.428-9.428 9.428-1.886-1.886 6.213-6.213h-19.969z"></path>
        </symbol>
        <symbol id="icon-calendar" viewBox="0 0 32 32">
            <path d="M12 13.333v2.667h-2.667v-2.667h2.667zM17.333 13.333v2.667h-2.667v-2.667h2.667zM22.667 13.333v2.667h-2.667v-2.667h2.667zM25.333 4c0.707 0 1.386 0.281 1.886 0.781s0.781 1.178 0.781 1.886v18.667c0 0.707-0.281 1.386-0.781 1.886s-1.178 0.781-1.886 0.781h-18.667c-0.707 0-1.386-0.281-1.886-0.781s-0.781-1.178-0.781-1.886v-18.667c0-0.707 0.281-1.386 0.781-1.886s1.178-0.781 1.886-0.781h1.333v-2.667h2.667v2.667h10.667v-2.667h2.667v2.667h1.333zM25.333 25.333v-14.667h-18.667v14.667h18.667zM12 18.667v2.667h-2.667v-2.667h2.667zM17.333 18.667v2.667h-2.667v-2.667h2.667zM22.667 18.667v2.667h-2.667v-2.667h2.667z"></path>
        </symbol>
        <symbol id="icon-calendar-euro" viewBox="0 0 32 32">
            <path d="M27.65 8.881c-0.697 0-1.271 0.211-1.723 0.634-0.451 0.417-0.743 1.024-0.874 1.822h3.454v1.572h-3.582l-0.017 0.313v0.42l0.017 0.295h3.043v1.59h-2.897c0.291 1.447 1.208 2.17 2.751 2.17 0.817 0 1.603-0.17 2.357-0.509v2.286c-0.663 0.351-1.5 0.527-2.511 0.527-1.4 0-2.551-0.396-3.454-1.188s-1.471-1.887-1.706-3.286h-1.174v-1.59h1.011c-0.023-0.137-0.034-0.321-0.034-0.554l0.017-0.473h-0.994v-1.572h1.14c0.211-1.441 0.78-2.578 1.706-3.411 0.926-0.839 2.083-1.259 3.471-1.259 1.074 0 2.080 0.244 3.017 0.732l-0.84 2.072c-0.394-0.185-0.763-0.327-1.106-0.429-0.343-0.107-0.7-0.161-1.071-0.161z"></path>
            <path d="M1.333 23.583c0 0.464 0.211 0.909 0.586 1.237s0.884 0.513 1.414 0.513h14.668c0.53-0 1.039-0.185 1.414-0.513s0.586-0.773 0.586-1.237v-9.917h-18.667v9.916zM14.668 16.438c0-0.116 0.053-0.227 0.146-0.309s0.22-0.128 0.353-0.129h1.666c0.133 0 0.26 0.046 0.353 0.128s0.147 0.193 0.147 0.309v1.458c-0 0.116-0.053 0.227-0.147 0.309s-0.221 0.128-0.353 0.128h-1.666c-0.133-0-0.26-0.046-0.353-0.128s-0.147-0.193-0.147-0.309l0.001-1.458zM14.668 21.104c0-0.116 0.053-0.227 0.147-0.309s0.221-0.128 0.353-0.128h1.667c0.133 0 0.26 0.046 0.353 0.128s0.147 0.193 0.147 0.309v1.458c-0 0.116-0.053 0.227-0.147 0.309s-0.221 0.128-0.353 0.128h-1.668c-0.133-0-0.26-0.046-0.353-0.128s-0.147-0.193-0.147-0.309l0.001-1.458zM9.334 16.438c0-0.116 0.053-0.227 0.147-0.309s0.221-0.128 0.353-0.128h1.666c0.132 0 0.259 0.046 0.353 0.128s0.147 0.193 0.147 0.308v1.458c-0 0.116-0.053 0.227-0.147 0.309s-0.221 0.128-0.353 0.128h-1.666c-0.133-0-0.26-0.046-0.353-0.128s-0.147-0.193-0.147-0.309v-1.457zM9.334 21.104c0-0.116 0.053-0.227 0.147-0.309s0.221-0.128 0.353-0.128h1.666c0.132 0 0.259 0.046 0.353 0.128s0.147 0.193 0.147 0.308v1.458c-0 0.116-0.053 0.227-0.147 0.309s-0.221 0.128-0.353 0.128h-1.666c-0.133-0-0.26-0.046-0.353-0.128s-0.147-0.193-0.147-0.309v-1.457zM4 16.438c0-0.116 0.053-0.227 0.147-0.309s0.221-0.128 0.353-0.128h1.666c0.133 0 0.26 0.046 0.353 0.128s0.146 0.193 0.147 0.309v1.458c-0 0.116-0.053 0.227-0.147 0.309s-0.221 0.128-0.353 0.128h-1.666c-0.133-0-0.26-0.046-0.353-0.128s-0.147-0.193-0.147-0.309v-1.458zM4 21.104c0-0.116 0.053-0.227 0.147-0.309s0.221-0.128 0.353-0.128h1.666c0.133 0 0.26 0.046 0.353 0.128s0.146 0.193 0.147 0.309v1.458c-0 0.116-0.053 0.227-0.147 0.309s-0.221 0.128-0.353 0.128h-1.666c-0.133-0-0.26-0.046-0.353-0.128s-0.147-0.193-0.147-0.309v-1.458zM18 9h-2.001v-1.751c-0.001-0.154-0.071-0.302-0.196-0.411s-0.294-0.171-0.47-0.171h-1.333c-0.176 0.001-0.346 0.062-0.47 0.171s-0.195 0.257-0.196 0.411v1.751h-5.334v-1.751c-0.001-0.155-0.071-0.303-0.196-0.412s-0.294-0.171-0.471-0.171h-1.333c-0.176 0.001-0.346 0.062-0.47 0.171s-0.195 0.257-0.196 0.411v1.751h-2.001c-0.53 0-1.039 0.185-1.414 0.513s-0.586 0.773-0.586 1.237v1.751h18.667v-1.751c-0-0.464-0.211-0.909-0.586-1.237s-0.883-0.512-1.414-0.513z"></path>
        </symbol>
        <symbol id="icon-check" viewBox="0 0 32 32">
            <path d="M12 27.227l-8.28-8.28 3.773-3.773 4.507 4.52 13.173-13.187 3.773 3.773-16.947 16.947z"></path>
        </symbol>
        <symbol id="icon-check-circle" viewBox="0 0 32 32">
            <path d="M16 2.667c-7.352 0-13.333 5.981-13.333 13.333s5.981 13.333 13.333 13.333c7.352 0 13.333-5.981 13.333-13.333s-5.981-13.333-13.333-13.333zM13.335 21.884l-4.951-4.94 1.883-1.888 3.065 3.060 7.059-7.059 1.885 1.885-8.941 8.941z"></path>
        </symbol>
        <symbol id="icon-chevron" viewBox="0 0 32 32">
            <path d="M22.107 11.453l-6.107 6.107-6.12-6.107-1.88 1.88 8 8 8-8-1.893-1.88z"></path>
        </symbol>
        <symbol id="icon-clock" viewBox="0 0 32 32">
            <path d="M16 2.667c-7.333 0-13.333 6-13.333 13.333s6 13.333 13.333 13.333c7.333 0 13.333-6 13.333-13.333s-6-13.333-13.333-13.333zM21.733 20.267l-7.067-3.867v-7.067h2v5.867l6 3.333-0.933 1.733z"></path>
        </symbol>
        <symbol id="icon-close" viewBox="0 0 32 32">
            <path d="M26.667 9.213l-3.88-3.88-6.787 6.787-6.787-6.787-3.88 3.88 6.787 6.787-6.787 6.787 3.88 3.88 6.787-6.787 6.787 6.787 3.88-3.88-6.787-6.787 6.787-6.787z"></path>
        </symbol>
        <symbol id="icon-drop-down" viewBox="0 0 32 32">
            <path d="M9.333 13.333l6.667 6.667 6.667-6.667h-13.333z"></path>
        </symbol>
        <symbol id="icon-exit" viewBox="0 0 32 32">
            <path d="M13.453 20.787l1.88 1.88 6.667-6.667-6.667-6.667-1.88 1.88 3.44 3.453h-12.893v2.667h12.893l-3.44 3.453zM25.333 4h-18.667c-0.707 0-1.386 0.281-1.886 0.781s-0.781 1.178-0.781 1.886v5.333h2.667v-5.333h18.667v18.667h-18.667v-5.333h-2.667v5.333c0 0.707 0.281 1.386 0.781 1.886s1.178 0.781 1.886 0.781h18.667c1.467 0 2.667-1.2 2.667-2.667v-18.667c0-1.467-1.2-2.667-2.667-2.667z"></path>
        </symbol>
        <symbol id="icon-fast-time" viewBox="0 0 32 32">
            <path d="M19.439 25.651c-2.179 0-4.268-0.866-5.808-2.408s-2.406-3.633-2.406-5.814 0.865-4.272 2.406-5.814c1.54-1.542 3.63-2.408 5.808-2.408s4.268 0.866 5.808 2.408c1.541 1.542 2.406 3.633 2.406 5.814s-0.865 4.272-2.406 5.814c-1.54 1.542-3.63 2.408-5.808 2.408zM27.688 10.839l1.666-1.668c-0.528-0.599-1.056-1.139-1.655-1.656l-1.666 1.691c-1.819-1.48-4.107-2.349-6.595-2.349-2.801 0-5.487 1.114-7.468 3.096s-3.093 4.671-3.093 7.475c0 2.804 1.113 5.493 3.093 7.475s4.667 3.096 7.468 3.096c5.867 0 10.561-4.734 10.561-10.571 0-2.49-0.868-4.781-2.312-6.59zM18.265 18.603h2.347v-7.048h-2.347v7.048zM22.959 3.333h-7.041v2.349h7.041v-2.349z"></path>
            <path d="M4.552 19.878h3.219v2.416h-3.219v-2.416z"></path>
            <path d="M2.943 11.823h4.828v2.416h-4.828v-2.416z"></path>
            <path d="M1.333 15.851h5.633v2.416h-5.633v-2.416z"></path>
        </symbol>
        <symbol id="icon-food" viewBox="0 0 32 32">
            <path d="M9.351 4.001c-1.302-0.027-2.567 0.432-3.549 1.286s-1.612 2.044-1.765 3.337c-0.154 1.293 0.18 2.597 0.934 3.658s1.877 1.803 3.149 2.082l-0.883 12.14c0.003 0.211 0.049 0.418 0.136 0.61s0.213 0.363 0.369 0.504c0.157 0.141 0.341 0.247 0.541 0.313s0.411 0.090 0.621 0.070h0.889c0.21 0.021 0.422-0.003 0.622-0.068s0.385-0.172 0.542-0.313c0.157-0.141 0.283-0.313 0.37-0.505s0.133-0.4 0.136-0.611l-0.883-12.14c1.267-0.283 2.385-1.026 3.135-2.086s1.082-2.36 0.928-3.65-0.78-2.476-1.758-3.33c-0.978-0.854-2.238-1.315-3.537-1.293v-0.004zM27.276 4.001l-1.481 7.5h-1.111l-0.741-7.5h-0.741l-0.741 7.5h-1.111l-1.48-7.5h-0.741v9.751c0.020 0.217 0.124 0.417 0.291 0.558s0.382 0.21 0.599 0.193h2.315l-0.873 12c0.003 0.211 0.049 0.419 0.136 0.611s0.213 0.364 0.37 0.505c0.157 0.141 0.341 0.247 0.542 0.313s0.412 0.089 0.622 0.069h0.889c0.21 0.020 0.422-0.003 0.622-0.069s0.385-0.172 0.542-0.313c0.157-0.141 0.283-0.313 0.37-0.505s0.133-0.4 0.136-0.611l-0.873-12h2.315c0.217 0.017 0.432-0.052 0.598-0.192s0.271-0.34 0.291-0.557v-9.752h-0.741z"></path>
        </symbol>
        <symbol id="icon-house" viewBox="0 0 32 32">
            <path d="M29.334 12l-13.333-10.667-13.333 10.667v2.667h2.667v13.333h6.667v-5.333c0-1.061 0.421-2.078 1.172-2.828s1.768-1.172 2.828-1.172 2.078 0.421 2.828 1.172c0.75 0.75 1.172 1.768 1.172 2.828v5.333h6.667v-13.333h2.667v-2.667z"></path>
        </symbol>
        <symbol id="icon-list" viewBox="0 0 32 32">
            <path d="M6.667 21.359h-3.2c-0.106 0-0.21 0.021-0.308 0.062s-0.186 0.1-0.261 0.175-0.133 0.164-0.173 0.262c-0.040 0.098-0.060 0.203-0.059 0.309v3.2c0 0.212 0.084 0.416 0.234 0.566s0.353 0.234 0.566 0.234h3.2c0.212 0 0.416-0.084 0.566-0.234s0.234-0.353 0.234-0.566v-3.2c0.001-0.106-0.019-0.211-0.059-0.309s-0.099-0.187-0.173-0.262c-0.074-0.075-0.163-0.135-0.261-0.175s-0.202-0.062-0.308-0.062zM6.667 5.333h-3.2c-0.212 0-0.416 0.084-0.566 0.234s-0.234 0.354-0.234 0.566v3.2c0 0.212 0.084 0.416 0.234 0.566s0.353 0.234 0.566 0.234h3.2c0.212 0 0.416-0.084 0.566-0.234s0.234-0.353 0.234-0.566v-3.2c0-0.212-0.084-0.416-0.234-0.566s-0.354-0.234-0.566-0.234zM6.667 13.347h-3.2c-0.212 0-0.416 0.084-0.566 0.234s-0.234 0.353-0.234 0.566v3.2c0 0.212 0.084 0.416 0.234 0.566s0.353 0.234 0.566 0.234h3.2c0.212 0 0.416-0.084 0.566-0.234s0.234-0.353 0.234-0.566v-3.2c0-0.212-0.084-0.416-0.234-0.566s-0.354-0.234-0.566-0.234zM27.507 22.167h-16.025c-0.212 0-0.416 0.084-0.566 0.234s-0.234 0.353-0.234 0.566v1.6c0 0.105 0.021 0.209 0.061 0.306s0.099 0.185 0.173 0.26c0.074 0.074 0.162 0.133 0.26 0.173s0.201 0.061 0.306 0.061h16.025c0.105 0 0.209-0.021 0.306-0.061s0.185-0.099 0.26-0.173c0.074-0.074 0.133-0.162 0.173-0.26s0.061-0.201 0.061-0.306v-1.6c0-0.105-0.021-0.209-0.061-0.306s-0.099-0.185-0.173-0.26c-0.074-0.074-0.162-0.133-0.26-0.173s-0.201-0.061-0.306-0.061zM27.507 6.141h-16.025c-0.212 0-0.416 0.084-0.566 0.234s-0.234 0.354-0.234 0.566v1.6c0 0.212 0.084 0.416 0.234 0.566s0.354 0.234 0.566 0.234h16.025c0.105 0 0.209-0.021 0.306-0.061s0.185-0.099 0.26-0.173c0.074-0.074 0.133-0.162 0.173-0.26s0.061-0.201 0.061-0.306v-1.6c0.001-0.106-0.019-0.21-0.059-0.308s-0.099-0.187-0.173-0.262c-0.074-0.075-0.163-0.135-0.26-0.175s-0.202-0.062-0.308-0.062v0.007zM27.507 14.155h-16.025c-0.212 0-0.416 0.084-0.566 0.234s-0.234 0.353-0.234 0.566v1.6c0 0.212 0.084 0.416 0.234 0.566s0.354 0.234 0.566 0.234h16.025c0.105 0 0.209-0.021 0.306-0.061s0.185-0.099 0.26-0.173c0.074-0.074 0.133-0.162 0.173-0.26s0.061-0.201 0.061-0.306v-1.6c0.001-0.106-0.019-0.21-0.059-0.308s-0.099-0.187-0.173-0.262c-0.074-0.075-0.163-0.135-0.26-0.175s-0.202-0.062-0.308-0.062v0.007z"></path>
        </symbol>
        <symbol id="icon-lock" viewBox="0 0 32 32">
            <path d="M24 10.667h-1.333v-2.667c0-3.68-2.987-6.667-6.667-6.667s-6.667 2.987-6.667 6.667v2.667h-1.333c-1.467 0-2.667 1.2-2.667 2.667v13.333c0 1.467 1.2 2.667 2.667 2.667h16c1.467 0 2.667-1.2 2.667-2.667v-13.333c0-1.467-1.2-2.667-2.667-2.667zM16 22.667c-1.467 0-2.667-1.2-2.667-2.667s1.2-2.667 2.667-2.667c1.467 0 2.667 1.2 2.667 2.667s-1.2 2.667-2.667 2.667zM20.133 10.667h-8.267v-2.667c0-2.28 1.853-4.133 4.133-4.133s4.133 1.853 4.133 4.133v2.667z"></path>
        </symbol>
        <symbol id="icon-mail" viewBox="0 0 32 32">
            <path d="M26.667 5.333h-21.333c-1.467 0-2.653 1.2-2.653 2.667l-0.013 16c0 1.467 1.2 2.667 2.667 2.667h21.333c1.467 0 2.667-1.2 2.667-2.667v-16c0-1.467-1.2-2.667-2.667-2.667zM26.667 10.667l-10.667 6.667-10.667-6.667v-2.667l10.667 6.667 10.667-6.667v2.667z"></path>
        </symbol>
        <symbol id="icon-menu" viewBox="0 0 32 32">
            <path d="M1.332 14.222h21.333v3.556h-21.333v-3.556zM1.332 5.333h28.444v3.556h-28.444v-3.556zM1.332 26.667h12.862v-3.556h-12.862v3.556z"></path>
        </symbol>
        <symbol id="icon-messanger" viewBox="0 0 32 32">
            <path d="M17.256 19.217l-3.413-3.547-6.576 3.636 7.208-7.648 3.413 3.547 6.573-3.636-7.205 7.648zM15.865 2.667c-7.289 0-13.199 5.525-13.199 12.343 0 3.877 1.912 7.337 4.904 9.6v4.724l4.504-2.499c1.2 0.336 2.473 0.517 3.791 0.517 7.291 0 13.2-5.527 13.2-12.343 0-6.817-5.909-12.343-13.2-12.343z"></path>
        </symbol>
        <symbol id="icon-minus-circle" viewBox="0 0 32 32">
            <path d="M16 2c-7.731 0-14 6.269-14 14s6.269 14 14 14c7.731 0 14-6.269 14-14s-6.269-14-14-14zM22 16.75c0 0.137-0.113 0.25-0.25 0.25h-11.5c-0.138 0-0.25-0.113-0.25-0.25v-1.5c0-0.137 0.112-0.25 0.25-0.25h11.5c0.137 0 0.25 0.113 0.25 0.25v1.5z"></path>
        </symbol>
        <symbol id="icon-offer" viewBox="0 0 32 32">
            <path d="M25.341 15.984l1.717-2.967-2.968-1.715v-3.421h-3.42l-1.715-2.968-2.97 1.717-2.969-1.718-1.716 2.969h-3.419v3.419l-2.969 1.716 1.718 2.969-1.718 2.969 2.967 1.715v3.419h3.421l1.716 2.968 2.968-1.717 2.971 1.717 1.714-2.968h3.42v-3.419l2.969-1.716-1.716-2.969zM18.531 29.121l-2.547-1.472-2.544 1.472c-0.205 0.119-0.436 0.18-0.668 0.18-0.234-0.001-0.463-0.063-0.666-0.18s-0.371-0.284-0.489-0.486l-1.472-2.547h-2.933c-0.354 0-0.693-0.14-0.943-0.39s-0.391-0.589-0.391-0.943v-2.932l-2.547-1.472c-0.305-0.178-0.527-0.47-0.618-0.811s-0.043-0.705 0.133-1.011l1.472-2.544-1.472-2.544c-0.088-0.151-0.146-0.319-0.169-0.493s-0.012-0.35 0.033-0.52c0.045-0.169 0.123-0.328 0.23-0.467s0.24-0.256 0.392-0.343l2.547-1.472v-2.932c0-0.354 0.14-0.693 0.391-0.943s0.589-0.391 0.943-0.391h2.932l1.472-2.547c0.177-0.306 0.468-0.53 0.81-0.621s0.705-0.044 1.012 0.133l2.547 1.473 2.547-1.472c0.151-0.088 0.319-0.145 0.493-0.168s0.35-0.011 0.519 0.035c0.341 0.093 0.632 0.316 0.809 0.621l1.471 2.545h2.932c0.354 0 0.693 0.14 0.943 0.391s0.391 0.589 0.391 0.943v2.933l2.547 1.472c0.306 0.177 0.529 0.468 0.62 0.81s0.043 0.705-0.134 1.011l-1.472 2.544 1.471 2.544c0.088 0.152 0.145 0.319 0.168 0.493s0.012 0.35-0.034 0.519c-0.045 0.169-0.123 0.328-0.23 0.467s-0.24 0.256-0.391 0.343l-2.547 1.472v2.932c0 0.354-0.14 0.693-0.391 0.943s-0.589 0.39-0.943 0.39h-2.932l-1.471 2.547c-0.177 0.306-0.469 0.529-0.81 0.62s-0.705 0.043-1.011-0.133z"></path>
            <path d="M12.651 9.304c0.531 0 1.039 0.211 1.414 0.586s0.586 0.884 0.586 1.415c-0 0.531-0.211 1.039-0.586 1.415s-0.884 0.586-1.415 0.585c-0.531-0-1.039-0.211-1.415-0.586s-0.586-0.884-0.585-1.415c0-0.531 0.211-1.039 0.586-1.414s0.884-0.586 1.415-0.586zM13.051 22.104l-2.133-1.599 8-10.667 2.133 1.599-8 10.667zM19.318 22.637c-0.263-0-0.523-0.052-0.766-0.153s-0.463-0.248-0.649-0.434c-0.186-0.186-0.333-0.406-0.433-0.649s-0.152-0.503-0.152-0.766c0-0.263 0.052-0.523 0.153-0.766s0.248-0.463 0.434-0.649c0.186-0.186 0.406-0.333 0.649-0.433s0.503-0.152 0.766-0.152c0.531 0 1.039 0.211 1.414 0.586s0.586 0.884 0.586 1.415c-0 0.531-0.211 1.039-0.586 1.415s-0.884 0.586-1.415 0.585z"></path>
        </symbol>
        <symbol id="icon-payment-card" viewBox="0 0 32 32">
            <path d="M26.667 5.333h-21.333c-1.48 0-2.653 1.187-2.653 2.667l-0.013 16c0 1.48 1.187 2.667 2.667 2.667h21.333c1.48 0 2.667-1.187 2.667-2.667v-16c0-1.48-1.187-2.667-2.667-2.667zM26.667 24h-21.333v-8h21.333v8zM26.667 10.667h-21.333v-2.667h21.333v2.667z"></path>
        </symbol>
        <symbol id="icon-phone" viewBox="0 0 32 32">
            <path d="M27.316 20.959l-5.25-2.25c-0.224-0.096-0.474-0.116-0.71-0.057s-0.448 0.192-0.602 0.381l-2.325 2.841c-3.649-1.72-6.586-4.657-8.306-8.306l2.841-2.325c0.189-0.154 0.323-0.365 0.382-0.602s0.038-0.486-0.058-0.71l-2.25-5.25c-0.105-0.242-0.292-0.439-0.527-0.558s-0.505-0.152-0.762-0.094l-4.875 1.125c-0.248 0.057-0.469 0.197-0.627 0.396s-0.245 0.446-0.244 0.7c0 12.024 9.745 21.75 21.75 21.75 0.254 0 0.502-0.086 0.701-0.244s0.339-0.38 0.396-0.628l1.125-4.875c0.058-0.258 0.024-0.529-0.096-0.765s-0.318-0.423-0.561-0.529z"></path>
        </symbol>
        <symbol id="icon-plus-circle" viewBox="0 0 32 32">
            <path d="M16 2c-7.731 0-14 6.269-14 14s6.269 14 14 14c7.731 0 14-6.269 14-14s-6.269-14-14-14zM22 16.75c0 0.137-0.113 0.25-0.25 0.25h-4.75v4.75c0 0.137-0.113 0.25-0.25 0.25h-1.5c-0.137 0-0.25-0.113-0.25-0.25v-4.75h-4.75c-0.138 0-0.25-0.113-0.25-0.25v-1.5c0-0.137 0.112-0.25 0.25-0.25h4.75v-4.75c0-0.138 0.113-0.25 0.25-0.25h1.5c0.137 0 0.25 0.112 0.25 0.25v4.75h4.75c0.137 0 0.25 0.113 0.25 0.25v1.5z"></path>
        </symbol>
        <symbol id="icon-point" viewBox="0 0 32 32">
            <path d="M16 15.333c-0.884 0-1.732-0.351-2.357-0.976s-0.976-1.473-0.976-2.357 0.351-1.732 0.976-2.357c0.625-0.625 1.473-0.976 2.357-0.976s1.732 0.351 2.357 0.976c0.625 0.625 0.976 1.473 0.976 2.357 0 0.438-0.086 0.871-0.254 1.276s-0.413 0.772-0.723 1.081c-0.31 0.31-0.677 0.555-1.081 0.723s-0.838 0.254-1.276 0.254zM16 2.667c-2.475 0-4.849 0.983-6.6 2.734s-2.734 4.124-2.734 6.6c0 7 9.333 17.333 9.333 17.333s9.333-10.333 9.333-17.333c0-2.475-0.983-4.849-2.734-6.6s-4.124-2.734-6.6-2.734z"></path>
        </symbol>
        <symbol id="icon-search" viewBox="0 0 32 32">
            <path d="M27.613 25.72l-4.533-4.52c1.463-1.863 2.256-4.164 2.253-6.533 0-2.11-0.626-4.172-1.798-5.926s-2.838-3.121-4.787-3.929c-1.949-0.807-4.094-1.019-6.163-0.607s-3.97 1.427-5.462 2.919c-1.492 1.492-2.508 3.392-2.919 5.462s-0.2 4.214 0.607 6.163c0.807 1.949 2.175 3.615 3.929 4.787s3.816 1.798 5.926 1.798c2.369 0.003 4.67-0.791 6.533-2.253l4.52 4.533c0.124 0.125 0.271 0.224 0.434 0.292s0.337 0.103 0.513 0.103 0.35-0.035 0.513-0.103c0.162-0.068 0.31-0.167 0.434-0.292 0.125-0.124 0.224-0.271 0.292-0.434s0.103-0.337 0.103-0.513-0.035-0.35-0.103-0.513c-0.068-0.163-0.167-0.31-0.292-0.434zM6.667 14.667c0-1.582 0.469-3.129 1.348-4.445s2.128-2.341 3.59-2.946c1.462-0.606 3.070-0.764 4.622-0.455s2.977 1.071 4.096 2.189c1.119 1.119 1.881 2.544 2.189 4.096s0.15 3.16-0.455 4.622c-0.606 1.462-1.631 2.711-2.946 3.59s-2.862 1.348-4.445 1.348c-2.122 0-4.157-0.843-5.657-2.343s-2.343-3.535-2.343-5.657z"></path>
        </symbol>
        <symbol id="icon-settings" viewBox="0 0 32 32">
            <path d="M28.951 13.973l-2.978-0.889c-0.206-0.719-0.489-1.413-0.844-2.071l1.458-2.729c0.055-0.103 0.075-0.221 0.057-0.336s-0.072-0.222-0.155-0.304l-2.124-2.133c-0.082-0.083-0.188-0.137-0.304-0.155s-0.233 0.002-0.336 0.057l-2.711 1.449c-0.664-0.373-1.368-0.671-2.098-0.889l-0.889-2.942c-0.038-0.108-0.109-0.202-0.203-0.268s-0.207-0.099-0.322-0.097h-3.004c-0.115 0.001-0.228 0.038-0.32 0.107s-0.161 0.165-0.195 0.276l-0.889 2.933c-0.736 0.217-1.446 0.515-2.116 0.889l-2.667-1.44c-0.103-0.055-0.221-0.075-0.336-0.057s-0.222 0.072-0.304 0.155l-2.16 2.107c-0.083 0.082-0.137 0.189-0.155 0.304s0.002 0.233 0.057 0.336l1.44 2.667c-0.373 0.667-0.671 1.374-0.889 2.107l-2.942 0.889c-0.11 0.034-0.207 0.102-0.276 0.195s-0.106 0.205-0.107 0.32v3.004c0.001 0.115 0.038 0.228 0.107 0.32s0.165 0.161 0.276 0.195l2.96 0.889c0.22 0.721 0.518 1.415 0.889 2.071l-1.458 2.791c-0.055 0.103-0.075 0.221-0.057 0.336s0.072 0.222 0.155 0.304l2.124 2.124c0.082 0.083 0.189 0.137 0.304 0.155s0.233-0.002 0.336-0.057l2.747-1.467c0.65 0.351 1.335 0.631 2.044 0.836l0.889 2.996c0.034 0.11 0.102 0.207 0.195 0.276s0.205 0.106 0.32 0.107h3.004c0.115-0.001 0.228-0.038 0.32-0.107s0.161-0.165 0.195-0.276l0.889-3.004c0.703-0.206 1.383-0.486 2.027-0.836l2.764 1.476c0.103 0.055 0.221 0.075 0.336 0.057s0.222-0.072 0.304-0.155l2.124-2.124c0.083-0.082 0.137-0.189 0.155-0.304s-0.002-0.233-0.057-0.336l-1.476-2.756c0.353-0.646 0.636-1.329 0.844-2.036l2.996-0.889c0.11-0.034 0.207-0.102 0.276-0.195s0.106-0.205 0.107-0.32v-3.031c0.005-0.111-0.023-0.22-0.082-0.314s-0.145-0.167-0.247-0.211zM16 20.889c-0.967 0-1.912-0.287-2.716-0.824s-1.431-1.301-1.801-2.194c-0.37-0.893-0.467-1.876-0.278-2.825s0.654-1.819 1.338-2.503c0.684-0.684 1.555-1.149 2.503-1.338s1.931-0.092 2.825 0.278c0.893 0.37 1.657 0.997 2.194 1.801s0.824 1.749 0.824 2.716c0 1.297-0.515 2.54-1.432 3.457s-2.16 1.432-3.457 1.432z"></path>
        </symbol>
        <symbol id="icon-star" viewBox="0 0 32 32">
            <path d="M23.413 28c-0.213 0.001-0.424-0.049-0.613-0.147l-6.8-3.56-6.8 3.56c-0.221 0.116-0.47 0.168-0.719 0.15s-0.487-0.106-0.689-0.253c-0.201-0.147-0.357-0.348-0.45-0.58s-0.119-0.484-0.075-0.73l1.333-7.507-5.493-5.333c-0.171-0.171-0.293-0.386-0.352-0.62s-0.052-0.481 0.018-0.713c0.077-0.237 0.219-0.448 0.41-0.608s0.423-0.264 0.67-0.299l7.6-1.107 3.347-6.84c0.109-0.225 0.28-0.416 0.492-0.549s0.458-0.204 0.708-0.204 0.496 0.071 0.708 0.204c0.212 0.133 0.383 0.323 0.492 0.549l3.387 6.827 7.6 1.107c0.247 0.035 0.479 0.139 0.67 0.299s0.333 0.371 0.41 0.608c0.071 0.232 0.077 0.478 0.018 0.713s-0.18 0.449-0.352 0.62l-5.493 5.333 1.333 7.507c0.048 0.25 0.023 0.508-0.072 0.745s-0.255 0.441-0.462 0.589c-0.241 0.169-0.532 0.254-0.827 0.24z"></path>
        </symbol>
        <symbol id="icon-sun" viewBox="0 0 32 32">
            <path d="M16.003 11.499c-0.89 0-1.76 0.264-2.501 0.759s-1.317 1.198-1.657 2.020c-0.34 0.822-0.429 1.727-0.256 2.6s0.603 1.674 1.232 2.304c0.63 0.629 1.432 1.058 2.305 1.231s1.778 0.084 2.601-0.256c0.822-0.341 1.525-0.917 2.020-1.657s0.759-1.61 0.759-2.5c-0.002-1.193-0.477-2.337-1.321-3.18s-1.988-1.318-3.182-1.32zM27.557 15.272l-4.44-2.216 1.571-4.707c0.048-0.143 0.055-0.297 0.021-0.444s-0.109-0.281-0.216-0.388c-0.107-0.107-0.241-0.181-0.388-0.216s-0.301-0.027-0.444 0.021l-4.708 1.569-2.223-4.443c-0.067-0.135-0.171-0.249-0.299-0.328s-0.276-0.122-0.427-0.122c-0.151 0-0.299 0.042-0.427 0.122s-0.232 0.193-0.299 0.328l-2.217 4.439-4.714-1.571c-0.143-0.048-0.297-0.055-0.444-0.021s-0.281 0.109-0.388 0.216c-0.107 0.107-0.182 0.241-0.216 0.388s-0.027 0.3 0.021 0.444l1.571 4.707-4.44 2.221c-0.135 0.067-0.249 0.171-0.328 0.299s-0.122 0.276-0.122 0.427c0 0.151 0.042 0.299 0.122 0.427s0.193 0.232 0.328 0.299l4.44 2.217-1.571 4.712c-0.048 0.143-0.055 0.297-0.021 0.443s0.109 0.281 0.216 0.388c0.107 0.107 0.241 0.181 0.388 0.216s0.301 0.027 0.444-0.021l4.708-1.571 2.218 4.439c0.067 0.135 0.171 0.249 0.299 0.328s0.276 0.121 0.427 0.121 0.299-0.042 0.427-0.121c0.128-0.079 0.232-0.193 0.299-0.328l2.211-4.439 4.708 1.571c0.143 0.048 0.297 0.055 0.444 0.021s0.281-0.109 0.388-0.216c0.107-0.107 0.182-0.241 0.216-0.388s0.027-0.3-0.021-0.443l-1.571-4.707 4.44-2.217c0.137-0.066 0.252-0.169 0.333-0.297s0.125-0.277 0.126-0.428c0.001-0.152-0.041-0.301-0.12-0.43s-0.193-0.234-0.329-0.302l0.007-0.001zM20.247 20.242c-0.839 0.839-1.909 1.411-3.073 1.642s-2.371 0.113-3.468-0.341-2.034-1.223-2.694-2.21c-0.66-0.987-1.012-2.147-1.012-3.333s0.352-2.347 1.012-3.333c0.66-0.987 1.597-1.756 2.694-2.21s2.304-0.573 3.468-0.341c1.164 0.232 2.234 0.803 3.073 1.642 0.557 0.557 0.999 1.219 1.301 1.947s0.457 1.508 0.457 2.296-0.155 1.568-0.457 2.296c-0.302 0.728-0.744 1.389-1.301 1.947z"></path>
        </symbol>
        <symbol id="icon-ticket" viewBox="0 0 32 32">
            <path d="M5.333 5.333c-0.707 0-1.386 0.281-1.886 0.781s-0.781 1.178-0.781 1.886v5.333c0.707 0 1.386 0.281 1.886 0.781s0.781 1.178 0.781 1.886-0.281 1.386-0.781 1.886c-0.5 0.5-1.178 0.781-1.886 0.781v5.333c0 0.707 0.281 1.386 0.781 1.886s1.178 0.781 1.886 0.781h21.333c0.707 0 1.386-0.281 1.886-0.781s0.781-1.178 0.781-1.886v-5.333c-0.707 0-1.386-0.281-1.886-0.781s-0.781-1.178-0.781-1.886 0.281-1.386 0.781-1.886c0.5-0.5 1.178-0.781 1.886-0.781v-5.333c0-0.707-0.281-1.386-0.781-1.886s-1.178-0.781-1.886-0.781h-21.333zM20.667 9.333l2 2-11.333 11.333-2-2 11.333-11.333zM11.747 9.387c1.307 0 2.36 1.053 2.36 2.36 0 0.626-0.249 1.226-0.691 1.669s-1.043 0.691-1.669 0.691c-1.307 0-2.36-1.053-2.36-2.36 0-0.626 0.249-1.226 0.691-1.669s1.043-0.691 1.669-0.691zM20.253 17.893c1.307 0 2.36 1.053 2.36 2.36 0 0.626-0.249 1.226-0.691 1.669s-1.043 0.691-1.669 0.691c-1.307 0-2.36-1.053-2.36-2.36 0-0.626 0.249-1.226 0.691-1.669s1.043-0.691 1.669-0.691z"></path>
        </symbol>
        <symbol id="icon-user" viewBox="0 0 32 32">
            <path d="M16 2.667c-7.36 0-13.333 5.973-13.333 13.333s5.973 13.333 13.333 13.333c7.36 0 13.333-5.973 13.333-13.333s-5.973-13.333-13.333-13.333zM9.427 24.373c0.573-1.2 4.067-2.373 6.573-2.373s6.013 1.173 6.573 2.373c-1.813 1.44-4.093 2.293-6.573 2.293s-4.76-0.853-6.573-2.293zM24.48 22.44c-1.907-2.32-6.533-3.107-8.48-3.107s-6.573 0.787-8.48 3.107c-1.416-1.848-2.185-4.111-2.187-6.44 0-5.88 4.787-10.667 10.667-10.667s10.667 4.787 10.667 10.667c0 2.427-0.827 4.653-2.187 6.44zM16 8c-2.587 0-4.667 2.080-4.667 4.667s2.080 4.667 4.667 4.667c2.587 0 4.667-2.080 4.667-4.667s-2.080-4.667-4.667-4.667zM16 14.667c-1.107 0-2-0.893-2-2s0.893-2 2-2c1.107 0 2 0.893 2 2s-0.893 2-2 2z"></path>
        </symbol>
        <symbol id="icon-zoom" viewBox="0 0 32 32">
            <path d="M17.996 13.329v1.333c-0 0.133-0.053 0.26-0.147 0.353s-0.221 0.147-0.353 0.147h-2.331v2.334c-0 0.133-0.053 0.26-0.147 0.353s-0.221 0.147-0.353 0.147h-1.337c-0.133-0-0.26-0.053-0.353-0.147s-0.147-0.221-0.147-0.353v-2.33h-2.333c-0.133-0-0.26-0.053-0.353-0.147s-0.147-0.221-0.147-0.353v-1.337c0-0.133 0.053-0.26 0.147-0.353s0.221-0.147 0.353-0.147h2.333v-2.333c0-0.133 0.053-0.26 0.147-0.353s0.221-0.147 0.353-0.147h1.334c0.066-0 0.131 0.012 0.192 0.037s0.117 0.062 0.163 0.108 0.084 0.102 0.109 0.163c0.025 0.061 0.039 0.126 0.039 0.192v2.333h2.334c0.132 0.001 0.258 0.054 0.351 0.148s0.145 0.22 0.146 0.352zM26.373 25.193l-1.179 1.179c-0.093 0.093-0.203 0.167-0.324 0.218s-0.251 0.076-0.383 0.076-0.261-0.026-0.383-0.076c-0.121-0.050-0.231-0.124-0.324-0.218l-4.16-4.154c-0.093-0.093-0.167-0.204-0.217-0.326s-0.075-0.253-0.075-0.385v-0.679c-1.739 1.357-3.931 2-6.128 1.797s-4.234-1.236-5.695-2.888c-1.461-1.653-2.237-3.8-2.17-6.005s0.974-4.301 2.534-5.861 3.656-2.466 5.861-2.534c2.205-0.068 4.353 0.708 6.006 2.169s2.686 3.498 2.889 5.694c0.203 2.197-0.44 4.388-1.797 6.127h0.679c0.132-0.001 0.263 0.025 0.385 0.075s0.233 0.124 0.326 0.217l4.155 4.154c0.187 0.189 0.292 0.445 0.291 0.71s-0.106 0.521-0.293 0.709zM19.664 13.996c0-1.121-0.332-2.216-0.955-3.148s-1.508-1.658-2.543-2.087c-1.036-0.429-2.175-0.541-3.274-0.322s-2.109 0.758-2.902 1.551c-0.793 0.793-1.332 1.802-1.551 2.901s-0.106 2.239 0.323 3.274 1.155 1.92 2.087 2.543c0.932 0.623 2.028 0.955 3.149 0.955 0.744 0 1.481-0.146 2.169-0.43s1.313-0.702 1.839-1.228c0.526-0.526 0.944-1.151 1.228-1.839s0.431-1.425 0.43-2.169h0.001z"></path>
        </symbol>
        <symbol id="icon-logo" viewBox="0 0 48 67">
            <g clip-path="url(#icon-logo-clip)">
                <path
                        d="M30.0125 10.7814L28.1793 10.4723C23.6337 9.70442 20.5745 5.32926 21.3494 0.800521C21.3909 0.558706 21.5271 0.343192 21.7281 0.201354C21.9291 0.0595168 22.1784 0.00296511 22.4212 0.0441311L24.2545 0.355134C28.8 1.12304 31.8593 5.4982 31.0843 10.025C31.064 10.1449 31.0202 10.2595 30.9553 10.3625C30.8904 10.4654 30.8057 10.5546 30.7061 10.6248C30.6066 10.6951 30.494 10.7451 30.375 10.772C30.256 10.7988 30.1328 10.8021 30.0125 10.7814Z"
                        fill="#3E7739"
                />
                <path
                        d="M26.2169 49.2767C37.0401 49.2767 45.814 40.5389 45.814 29.7603C45.814 18.9817 37.0401 10.2439 26.2169 10.2439C15.3937 10.2439 6.61978 18.9817 6.61978 29.7603C6.61978 40.5389 15.3937 49.2767 26.2169 49.2767Z"
                        fill="url(#icon-logo-paint0)"
                />
                <path
                        d="M32.3007 48.3111C32.7826 48.1537 33.2646 47.9809 33.7195 47.7889C28.9236 48.9489 23.8647 48.2641 19.5537 45.8713C15.2427 43.4784 11.9971 39.5538 10.4652 34.8816C8.93328 30.2093 9.22799 25.1334 11.2904 20.6681C13.3529 16.2029 17.0311 12.677 21.5903 10.7949C21.1046 10.9139 20.6194 11.0515 20.1349 11.2077C15.2244 12.8385 11.1612 16.3379 8.83246 20.9418C6.50374 25.5458 6.09868 30.8803 7.7057 35.7807C9.31272 40.681 12.8013 44.7491 17.4097 47.0968C22.0182 49.4445 27.3721 49.881 32.3026 48.3111H32.3007Z"
                        fill="#FEBB12"
                />
                <path
                        d="M39.4602 37.9597C39.7743 37.9057 40.0962 37.9188 40.4048 37.9981C40.7012 38.0778 40.9816 38.2077 41.2337 38.382C41.4863 38.5582 41.7017 38.7819 41.868 39.0405C42.0455 39.3099 42.1644 39.6133 42.2169 39.9313C42.2655 40.2475 42.2501 40.5703 42.1716 40.8805C42.0932 41.1907 41.9532 41.4822 41.76 41.7378C38.8851 44.9131 35.3703 46.8425 31.2154 47.5259C26.2856 48.336 21.7979 47.2968 17.7523 44.4082C13.7067 41.5196 11.2771 37.6212 10.4636 32.713C9.65269 27.8201 10.6975 23.3585 13.5981 19.3283C16.4986 15.2981 20.4119 12.8708 25.3378 12.0466C29.5518 11.3529 33.5878 12.11 37.4458 14.3177C37.6922 14.4944 37.8988 14.7204 38.0525 14.9813C38.2062 15.2421 38.3036 15.532 38.3383 15.8324C38.3945 16.1507 38.3867 16.477 38.3152 16.7923C38.2406 17.0894 38.1097 17.3696 37.9296 17.6178C37.7486 17.8678 37.5192 18.0793 37.2549 18.2398C36.9811 18.408 36.6764 18.5202 36.3586 18.57C35.7504 18.6579 35.1313 18.5154 34.6236 18.1707C33.3572 17.4726 31.9824 16.9905 30.5561 16.7443C29.0844 16.4937 27.5807 16.4937 26.1089 16.7443C22.4874 17.3394 19.6042 19.1267 17.4593 22.1062C15.3388 25.0499 14.578 28.3256 15.1769 31.9335C15.7757 35.5414 17.5537 38.4076 20.5108 40.5322C23.4847 42.6554 26.7907 43.4182 30.4289 42.8205C33.4175 42.3697 36.1492 40.8796 38.1398 38.6143C38.505 38.2705 38.9646 38.0426 39.4602 37.9597Z"
                        fill="url(#icon-logo-paint1)"
                />
                <path
                        d="M34.4058 34.0932C34.5898 34.0372 34.7838 34.0215 34.9745 34.0471C35.1576 34.0711 35.3351 34.127 35.4988 34.2122C35.6633 34.2984 35.8088 34.4166 35.9268 34.5597C36.052 34.7082 36.144 34.8817 36.1966 35.0684C36.2495 35.2538 36.2645 35.4479 36.2406 35.6392C36.2168 35.8304 36.1546 36.015 36.0578 36.1819C34.6494 38.2346 32.5649 39.7326 30.1648 40.4169C28.7918 40.8193 27.3525 40.9479 25.9294 40.7954C24.5063 40.6428 23.1275 40.2122 21.8718 39.5281C20.6162 38.844 19.5084 37.9199 18.6119 36.8087C17.7155 35.6976 17.048 34.4212 16.6477 33.0527C15.8387 30.2913 16.163 27.3231 17.5494 24.7996C18.9358 22.2761 21.271 20.4036 24.0424 19.5931C26.5163 18.8713 28.9896 19.0306 31.4622 20.0712C31.6225 20.1597 31.7625 20.2806 31.8734 20.426C31.9842 20.5714 32.0635 20.7383 32.106 20.9159C32.1639 21.102 32.1829 21.298 32.1619 21.4918C32.1415 21.6757 32.0848 21.8538 31.9952 22.0159C31.9055 22.1779 31.7847 22.3208 31.6395 22.4363C31.487 22.5557 31.3129 22.6449 31.1268 22.6993C30.7691 22.7962 30.3879 22.7558 30.0588 22.5861C29.2485 22.2599 28.389 22.0711 27.5161 22.0274C26.6161 21.9847 25.7153 22.0944 24.8521 22.3518C23.8416 22.645 22.8991 23.134 22.0788 23.7907C21.2585 24.4474 20.5765 25.2589 20.0718 26.1787C19.5671 27.0985 19.2497 28.1084 19.1378 29.1507C19.0259 30.1929 19.1217 31.2469 19.4198 32.2521C19.8442 33.6944 20.6692 34.9879 21.7996 35.9836C22.93 36.9793 24.3199 37.6367 25.8091 37.8801C27.2983 38.1234 28.8263 37.9429 30.2169 37.3591C31.6076 36.7754 32.8044 35.8123 33.6694 34.5808C33.861 34.3493 34.1173 34.1796 34.4058 34.0932Z"
                        fill="white"
                />
                <path
                        d="M0.963881 53.4081C3.20581 50.8702 10.0646 51.8166 13.6656 49.4745C14.4367 48.9773 14.7586 48.3898 14.6101 49.9429C14.3056 52.5769 10.9167 53.6308 8.69593 53.6903C7.99039 55.0726 5.80436 65.374 7.62219 65.9557C7.86316 66.0748 8.11569 66.0172 8.15617 66.1842C8.18701 66.9195 5.29737 67.912 4.70364 65.0112C4.34509 62.9571 4.51087 55.0284 6.80485 54.0244C4.89256 54.0474 3.14219 54.2624 2.51762 55.1762C2.02798 55.9614 2.84533 57.2553 4.03472 57.096C4.69786 56.977 5.11617 56.712 5.07183 56.977C5.01015 57.3974 3.52966 59.0503 1.93352 58.2747C0.133037 57.4895 -0.44142 55.0438 0.963881 53.4081Z"
                        fill="#255296"
                />
                <path
                        d="M12.6805 63.6096C11.1383 63.5462 11.0265 61.8568 11.1248 60.6167C11.1774 60.0079 11.2662 59.4027 11.3908 58.8044C11.0779 58.951 10.7485 59.0599 10.4096 59.1288C9.87759 59.1999 9.34361 59.0424 9.15855 58.4838C9.04674 58.0864 8.9812 57.2014 9.24722 56.756C9.57108 56.1685 10.4039 56.5928 10.4559 56.9153C10.6313 57.8119 9.2318 58.8793 11.8053 56.4066C12.0255 56.1741 12.3045 56.005 12.613 55.9171C12.8642 55.8776 13.1213 55.927 13.3397 56.0568C13.5581 56.1866 13.7238 56.3885 13.8082 56.6274C14.0222 57.401 13.3012 60.0561 13.3012 61.0102C14.3961 60.0849 17.5171 56.7598 18.1205 56.3509C19.6511 56.2069 14.799 63.646 12.6805 63.6096Z"
                        fill="#255296"
                />
                <path
                        d="M25.7889 59.2979C25.2434 60.1503 24.5513 61.1256 23.5297 61.5383C22.826 61.7917 22.1494 61.473 21.7388 60.8626C21.3328 61.2926 20.8191 61.6074 20.2506 61.7745C19.8559 61.8486 19.4476 61.79 19.09 61.6079C18.7323 61.4258 18.4455 61.1306 18.2747 60.7685C17.5036 59.0407 18.6121 54.2758 21.4998 54.7865C21.6395 54.8133 21.775 54.8585 21.9027 54.9209C21.9859 54.482 22.1381 54.0589 22.3538 53.6672C22.9706 52.8187 24.3065 53.6673 24.453 54.5216C24.4617 54.6923 24.4617 54.8634 24.453 55.0341C24.295 56.3261 23.8034 57.5548 23.6646 59.0004C23.6646 59.0157 23.655 59.0369 23.6646 59.0541C24.9003 57.9714 25.7658 56.5143 26.9128 55.205C27.5258 54.4966 28.0694 53.961 28.2776 54.0742C28.9157 54.6463 26.1456 58.7738 25.7889 59.2979ZM21.4574 56.4932C21.6675 55.8788 21.7889 55.3413 21.5191 55.4008C20.2506 55.8193 19.7841 57.6949 19.7841 58.914C19.7766 59.1339 19.8046 59.3537 19.867 59.5648H19.8844C20.5803 58.7297 21.0795 57.6047 21.4574 56.4932Z"
                        fill="#255296"
                />
                <path
                        d="M34.9262 51.6726C34.6622 53.3428 33.6154 58.3227 31.4718 59.2461C30.2631 59.6877 29.3879 58.53 29.2588 58.2075C28.96 57.4646 28.2814 54.4236 28.5243 52.9704C28.6438 52.2716 29.681 51.3405 30.159 52.9704C30.427 54.0397 30.5889 55.85 30.9879 56.8771C31.0997 56.6736 31.2038 56.5085 31.3195 56.3223C32.2834 54.773 32.985 53.0721 34.0935 51.2944C34.9552 49.9141 35.1306 50.2827 34.9262 51.6726Z"
                        fill="#255296"
                />
                <path
                        d="M43.1692 54.3622C42.3152 55.4084 41.3841 56.351 40.3104 56.9903C38.427 57.9598 36.5455 57.3551 36.2853 54.8191C36.1349 52.5921 37.2029 50.6474 38.8704 49.8872C40.4935 49.244 42.533 49.4917 41.7022 51.8953C41.0448 53.2506 39.8978 54.03 38.348 54.007C38.3601 54.1865 38.4073 54.3619 38.4868 54.5234C39.4043 56.2359 43.4525 51.9509 44.7402 50.2558C44.7781 50.2026 44.8319 50.1628 44.8939 50.1421C44.9559 50.1214 45.023 50.1209 45.0853 50.1406C45.5788 50.7971 43.5663 53.8093 43.1692 54.3622ZM38.3788 53.6058C38.7393 53.2564 39.4988 52.6459 39.7513 52.3502C42.0106 49.7374 38.5889 51.5612 38.3788 53.6058Z"
                        fill="#255296"
                />
                <path
                        d="M47.2289 56.5969C47.2289 56.7716 47.254 56.9271 47.2116 56.9808C46.747 57.1939 46.1147 56.618 45.6964 56.044C44.9985 55.1109 44.8887 53.9706 45.0063 52.8111C45.3031 49.6146 46.0761 46.4125 46.346 43.1162C46.3923 42.6286 46.8626 43.049 47.0149 43.2429C47.5373 43.9513 47.7725 45.5582 47.8053 45.9306C48.1426 49.4035 46.801 52.5269 47.2289 56.5969Z"
                        fill="#255296"
                />
            </g>
            <defs>
                <radialGradient
                        id="icon-logo-paint0"
                        cx="0"
                        cy="0"
                        r="1"
                        gradientUnits="userSpaceOnUse"
                        gradientTransform="translate(19.6453 11.3151) scale(63.601 63.339)"
                >
                    <stop stop-color="#FDD900"/>
                    <stop offset="0.52" stop-color="#F78F1F"/>
                    <stop offset="1" stop-color="#FDD900"/>
                </radialGradient>
                <linearGradient
                        id="icon-logo-paint1"
                        x1="10.2919"
                        y1="27.6679"
                        x2="43.2945"
                        y2="31.6137"
                        gradientUnits="userSpaceOnUse"
                >
                    <stop stop-color="#F15A29"/>
                    <stop offset="1" stop-color="#F7941D"/>
                </linearGradient>
                <clipPath id="icon-logo-clip">
                    <rect width="48" height="67" fill="white"/>
                </clipPath>
            </defs>
        </symbol>
        <symbol id="icon-languages" viewBox="0 0 32 32">
            <path
                    d="M15.984 0c-8.832 0-15.984 7.168-15.984 16s7.152 16 15.984 16c8.848 0 16.016-7.168 16.016-16s-7.168-16-16.016-16zM27.072 9.6h-4.72c-0.501-1.982-1.242-3.895-2.208-5.696 2.919 1.005 5.378 3.027 6.928 5.696zM16 3.264c1.328 1.92 2.368 4.048 3.056 6.336h-6.112c0.688-2.288 1.728-4.416 3.056-6.336zM3.616 19.2c-0.256-1.024-0.416-2.096-0.416-3.2s0.16-2.176 0.416-3.2h5.408c-0.128 1.056-0.224 2.112-0.224 3.2s0.096 2.144 0.224 3.2h-5.408zM4.928 22.4h4.72c0.512 2 1.248 3.92 2.208 5.696-2.922-0.999-5.383-3.023-6.928-5.696zM9.648 9.6h-4.72c1.545-2.673 4.006-4.697 6.928-5.696-0.966 1.801-1.707 3.714-2.208 5.696zM16 28.736c-1.328-1.92-2.368-4.048-3.056-6.336h6.112c-0.688 2.288-1.728 4.416-3.056 6.336zM19.744 19.2h-7.488c-0.144-1.056-0.256-2.112-0.256-3.2s0.112-2.16 0.256-3.2h7.488c0.144 1.040 0.256 2.112 0.256 3.2s-0.112 2.144-0.256 3.2zM20.144 28.096c0.96-1.776 1.696-3.696 2.208-5.696h4.72c-1.55 2.669-4.009 4.691-6.928 5.696zM22.976 19.2c0.128-1.056 0.224-2.112 0.224-3.2s-0.096-2.144-0.224-3.2h5.408c0.256 1.024 0.416 2.096 0.416 3.2s-0.16 2.176-0.416 3.2h-5.408z"
            ></path>
        </symbol>
        <symbol id="icon-instagram" viewBox="0 0 64 64">
            <defs>
                <radialGradient id="ig-gradient" cx="-578.95" cy="-837.6"
                                r="197.06" gradientUnits="userSpaceOnUse"
                                gradientTransform="translate(499.5 629.5) scale(0.75)">
                    <stop offset="0" stop-color="#f9ed32"/>
                    <stop offset="0.36" stop-color="#ee2a7b"/>
                    <stop offset="0.44" stop-color="#d22a8a"/>
                    <stop offset="0.6" stop-color="#8b2ab2"/>
                    <stop offset="0.83" stop-color="#1b2af0"/>
                    <stop offset="0.88" stop-color="#002aff"/>
                </radialGradient>
            </defs>

            <rect width="64" height="64" rx="11.2" fill="url(#ig-gradient)"/>

            <path fill="#fff"
                  d="M44,56H20A12,12,0,0,1,8,44V20A12,12,0,0,1,20,8H44A12,12,0,0,1,56,20V44A12,12,0,0,1,44,56ZM20,12.8A7.21,7.21,0,0,0,12.8,20V44A7.21,7.21,0,0,0,20,51.2H44A7.21,7.21,0,0,0,51.2,44V20A7.21,7.21,0,0,0,44,12.8Z"/>

            <path fill="#fff"
                  d="M32,45.6A13.6,13.6,0,1,1,45.6,32,13.61,13.61,0,0,1,32,45.6Zm0-22.4A8.8,8.8,0,1,0,40.8,32,8.81,8.81,0,0,0,32,23.2Z"/>

            <circle cx="45.6" cy="19.2" r="2.4" fill="#fff"/>
        </symbol>
        <symbol id="icon-facebook" viewBox="0 0 24 24">
            <path d="M12.001 2.00195C6.47895 2.00195 2.00195 6.47895 2.00195 12.001C2.00195 16.991 5.65795 21.127 10.439 21.88V14.892H7.89895V12.001H10.439V9.79795C10.439 7.28995 11.932 5.90695 14.215 5.90695C15.309 5.90695 16.455 6.10195 16.455 6.10195V8.56095H15.191C13.951 8.56095 13.563 9.33295 13.563 10.124V11.999H16.334L15.891 14.89H13.563V21.878C18.344 21.129 22 16.992 22 12.001C22 6.47895 17.523 2.00195 12.001 2.00195Z" fill="white"/>
        </symbol>
        <symbol id="icon-google" viewBox="0 0 24 24">
            <path d="M21.8055 10.0415H21V10H12V14H17.6515C16.827 16.3285 14.6115 18 12 18C8.6865 18 6 15.3135 6 12C6 8.6865 8.6865 6 12 6C13.5295 6 14.921 6.577 15.9805 7.5195L18.809 4.691C17.023 3.0265 14.634 2 12 2C6.4775 2 2 6.4775 2 12C2 17.5225 6.4775 22 12 22C17.5225 22 22 17.5225 22 12C22 11.3295 21.931 10.675 21.8055 10.0415Z" fill="#FFC107"/>
            <path d="M3.15332 7.3455L6.43882 9.755C7.32782 7.554 9.48082 6 12.0003 6C13.5298 6 14.9213 6.577 15.9808 7.5195L18.8093 4.691C17.0233 3.0265 14.6343 2 12.0003 2C8.15932 2 4.82832 4.1685 3.15332 7.3455Z" fill="#FF3D00"/>
            <path d="M12.0002 22C14.5832 22 16.9302 21.0115 18.7047 19.404L15.6097 16.785C14.5719 17.5742 13.3039 18.001 12.0002 18C9.39916 18 7.19066 16.3415 6.35866 14.027L3.09766 16.5395C4.75266 19.778 8.11366 22 12.0002 22Z" fill="#4CAF50"/>
            <path d="M21.8055 10.0415H21V10H12V14H17.6515C17.2571 15.1082 16.5467 16.0766 15.608 16.7855L15.6095 16.7845L18.7045 19.4035C18.4855 19.6025 22 17 22 12C22 11.3295 21.931 10.675 21.8055 10.0415Z" fill="#1976D2"/>
        </symbol>
    </defs>
</svg>
