<svg aria-hidden="true" style="position: absolute; width: 0; height: 0; overflow: hidden;" version="1.1" xmlns="http://www.w3.org/2000/svg" xmlns:xlink="http://www.w3.org/1999/xlink">
    <defs>
        <symbol id="icon-airplaine" viewBox="0 0 32 32">
            <path d="M1.007 27.996h29.17v3.572h-29.17v-3.572zM31.052 11.276c-0.045-0.318-0.156-0.622-0.327-0.894s-0.396-0.504-0.663-0.683c-0.266-0.179-0.568-0.299-0.884-0.354s-0.64-0.042-0.951 0.037l-8.154 2.544-10.593-11.494-2.963 0.912 6.357 12.8-7.623 2.384-3.025-2.75-2.226 0.692 2.793 5.644 1.181 2.375 2.456-0.768 22.978-7.14c0.629-0.257 1.143-0.734 1.445-1.342s0.373-1.306 0.198-1.962z"></path>
        </symbol>
        <symbol id="icon-arrow-right" viewBox="0 0 32 32">
            <path d="M0 17.378v-3.358h25.224l-7.848-7.848 2.382-2.382 11.909 11.909-11.909 11.909-2.382-2.382 7.848-7.848h-25.224z"></path>
        </symbol>
        <symbol id="icon-calendar" viewBox="0 0 32 32">
            <path d="M11.2 14.4v3.2h-3.2v-3.2h3.2zM17.6 14.4v3.2h-3.2v-3.2h3.2zM24 14.4v3.2h-3.2v-3.2h3.2zM27.2 3.2c0.849 0 1.663 0.337 2.263 0.937s0.937 1.414 0.937 2.263v22.4c0 0.849-0.337 1.663-0.937 2.263s-1.414 0.937-2.263 0.937h-22.4c-0.849 0-1.663-0.337-2.263-0.937s-0.937-1.414-0.937-2.263v-22.4c0-0.849 0.337-1.663 0.937-2.263s1.414-0.937 2.263-0.937h1.6v-3.2h3.2v3.2h12.8v-3.2h3.2v3.2h1.6zM27.2 28.8v-17.6h-22.4v17.6h22.4zM11.2 20.8v3.2h-3.2v-3.2h3.2zM17.6 20.8v3.2h-3.2v-3.2h3.2zM24 20.8v3.2h-3.2v-3.2h3.2z"></path>
        </symbol>
        <symbol id="icon-calendar-euro" viewBox="0 0 32 32">
            <path d="M28.709 8.234c-0.76 0-1.387 0.231-1.879 0.692-0.492 0.455-0.81 1.117-0.954 1.987h3.768v1.715h-3.908l-0.019 0.341v0.458l0.019 0.321h3.319v1.734h-3.16c0.318 1.578 1.318 2.367 3.001 2.367 0.891 0 1.748-0.185 2.571-0.555v2.494c-0.723 0.383-1.636 0.575-2.739 0.575-1.527 0-2.783-0.432-3.768-1.296s-1.605-2.059-1.861-3.585h-1.281v-1.734h1.103c-0.025-0.149-0.037-0.351-0.037-0.604l0.019-0.516h-1.085v-1.715h1.244c0.231-1.572 0.851-2.812 1.861-3.722 1.010-0.916 2.272-1.374 3.787-1.374 1.172 0 2.269 0.266 3.291 0.799l-0.916 2.26c-0.43-0.201-0.832-0.357-1.206-0.468-0.374-0.117-0.764-0.175-1.169-0.175z"></path>
            <path d="M0 24.272c0 0.506 0.23 0.992 0.639 1.35s0.964 0.559 1.542 0.56h16.001c0.578-0 1.133-0.201 1.542-0.559s0.639-0.843 0.639-1.349v-10.819h-20.364v10.818zM14.546 16.477c0-0.126 0.058-0.247 0.16-0.337s0.24-0.14 0.385-0.141h1.818c0.145 0 0.283 0.051 0.385 0.14s0.16 0.211 0.16 0.337v1.591c-0 0.126-0.058 0.248-0.16 0.337s-0.241 0.14-0.385 0.14h-1.818c-0.145-0-0.283-0.051-0.385-0.14s-0.16-0.211-0.16-0.337l0.001-1.591zM14.546 21.568c0-0.126 0.058-0.248 0.16-0.337s0.241-0.14 0.385-0.14h1.818c0.145 0 0.283 0.051 0.385 0.14s0.16 0.211 0.16 0.337v1.591c-0 0.126-0.058 0.248-0.16 0.337s-0.241 0.14-0.385 0.14h-1.819c-0.145-0-0.283-0.051-0.385-0.14s-0.16-0.211-0.16-0.337l0.001-1.591zM8.728 16.477c0-0.126 0.058-0.248 0.16-0.337s0.241-0.14 0.385-0.14h1.818c0.144 0 0.283 0.051 0.385 0.14s0.16 0.21 0.161 0.337v1.591c-0 0.127-0.058 0.248-0.16 0.337s-0.241 0.14-0.385 0.14h-1.818c-0.145-0-0.283-0.051-0.385-0.14s-0.16-0.211-0.16-0.337v-1.59zM8.728 21.568c0-0.126 0.058-0.248 0.16-0.337s0.241-0.14 0.385-0.14h1.818c0.144 0 0.283 0.051 0.385 0.14s0.16 0.21 0.161 0.337v1.591c-0 0.127-0.058 0.248-0.16 0.337s-0.241 0.14-0.385 0.14h-1.818c-0.145-0-0.283-0.051-0.385-0.14s-0.16-0.211-0.16-0.337v-1.59zM2.909 16.477c0-0.126 0.058-0.248 0.16-0.337s0.241-0.14 0.385-0.14h1.818c0.145 0 0.283 0.051 0.385 0.14s0.16 0.211 0.16 0.337v1.591c-0 0.126-0.058 0.248-0.16 0.337s-0.241 0.14-0.385 0.14h-1.818c-0.145-0-0.283-0.051-0.385-0.14s-0.16-0.211-0.16-0.337v-1.591zM2.909 21.568c0-0.126 0.058-0.248 0.16-0.337s0.241-0.14 0.385-0.14h1.818c0.145 0 0.283 0.051 0.385 0.14s0.16 0.211 0.16 0.337v1.591c-0 0.126-0.058 0.248-0.16 0.337s-0.241 0.14-0.385 0.14h-1.818c-0.145-0-0.283-0.051-0.385-0.14s-0.16-0.211-0.16-0.337v-1.591zM18.182 8.364h-2.183v-1.91c-0.001-0.168-0.077-0.33-0.214-0.449s-0.32-0.186-0.513-0.187h-1.455c-0.193 0.001-0.377 0.068-0.513 0.187s-0.213 0.28-0.214 0.449v1.91h-5.819v-1.91c-0.001-0.169-0.078-0.33-0.214-0.449s-0.321-0.186-0.514-0.186h-1.455c-0.193 0.001-0.377 0.068-0.513 0.187s-0.213 0.28-0.214 0.449v1.91h-2.183c-0.578 0-1.133 0.201-1.542 0.559s-0.639 0.843-0.639 1.349v1.91h20.364v-1.91c-0-0.506-0.23-0.991-0.639-1.349s-0.964-0.559-1.542-0.559z"></path>
        </symbol>
        <symbol id="icon-check" viewBox="0 0 32 32">
            <path d="M10.459 28.699l-10.459-10.459 4.766-4.766 5.693 5.709 16.64-16.657 4.766 4.766-21.406 21.406z"></path>
        </symbol>
        <symbol id="icon-check-circle" viewBox="0 0 32 32">
            <path d="M16 0c-8.822 0-16 7.178-16 16s7.178 16 16 16c8.822 0 16-7.178 16-16s-7.178-16-16-16zM12.802 23.061l-5.941-5.928 2.259-2.266 3.678 3.672 8.47-8.47 2.262 2.262-10.73 10.73z"></path>
        </symbol>
        <symbol id="icon-chevron-left" viewBox="0 0 32 32">
            <path d="M28.213 6l-12.213 12.213-12.24-12.213-3.76 3.76 16 16 16-16-3.787-3.76z"></path>
        </symbol>
        <symbol id="icon-clock" viewBox="0 0 32 32">
            <path d="M16 0c-8.8 0-16 7.2-16 16s7.2 16 16 16c8.8 0 16-7.2 16-16s-7.2-16-16-16zM22.88 21.12l-8.48-4.64v-8.48h2.4v7.040l7.2 4-1.12 2.080z"></path>
        </symbol>
        <symbol id="icon-close" viewBox="0 0 32 32">
            <path d="M32 5.82l-5.82-5.82-10.18 10.18-10.18-10.18-5.82 5.82 10.18 10.18-10.18 10.18 5.82 5.82 10.18-10.18 10.18 10.18 5.82-5.82-10.18-10.18 10.18-10.18z"></path>
        </symbol>
        <symbol id="icon-drop-down" viewBox="0 0 32 32">
            <path d="M0 8l16 16 16-16h-32z"></path>
        </symbol>
        <symbol id="icon-exit" viewBox="0 0 32 32">
            <path d="M12.604 22.382l2.507 2.507 8.889-8.889-8.889-8.889-2.507 2.507 4.587 4.604h-17.191v3.556h17.191l-4.587 4.604zM28.444 0h-24.889c-0.943 0-1.847 0.375-2.514 1.041s-1.041 1.571-1.041 2.514v7.111h3.556v-7.111h24.889v24.889h-24.889v-7.111h-3.556v7.111c0 0.943 0.375 1.847 1.041 2.514s1.571 1.041 2.514 1.041h24.889c1.956 0 3.556-1.6 3.556-3.556v-24.889c0-1.956-1.6-3.556-3.556-3.556z"></path>
        </symbol>
        <symbol id="icon-fast-time" viewBox="0 0 32 32">
            <path d="M20.211 27.145c-2.432 0-4.764-0.967-6.484-2.688s-2.686-4.056-2.686-6.49 0.966-4.769 2.686-6.49c1.72-1.721 4.052-2.688 6.484-2.688s4.764 0.967 6.484 2.688c1.72 1.721 2.686 4.056 2.686 6.49s-0.966 4.769-2.686 6.49c-1.72 1.721-4.052 2.688-6.484 2.688zM29.419 10.611l1.86-1.862c-0.589-0.669-1.179-1.272-1.847-1.849l-1.86 1.888c-2.030-1.652-4.585-2.622-7.362-2.622-3.127 0-6.125 1.243-8.336 3.456s-3.453 5.215-3.453 8.344c0 3.13 1.242 6.131 3.453 8.344s5.21 3.456 8.336 3.456c6.55 0 11.789-5.284 11.789-11.801 0-2.78-0.969-5.337-2.581-7.356zM18.901 19.278h2.62v-7.867h-2.62v7.867zM24.14 2.233h-7.86v2.622h7.86v-2.622z"></path>
            <path d="M3.593 20.701h3.593v2.697h-3.593v-2.697z"></path>
            <path d="M1.797 11.71h5.389v2.697h-5.389v-2.697z"></path>
            <path d="M0 16.206h6.288v2.697h-6.288v-2.697z"></path>
        </symbol>
        <symbol id="icon-food" viewBox="0 0 32 32">
            <path d="M6.942 0.001c-1.689-0.035-3.33 0.56-4.604 1.669s-2.091 2.652-2.29 4.329c-0.199 1.677 0.233 3.369 1.212 4.745s2.436 2.339 4.086 2.701l-1.145 15.749c0.003 0.273 0.063 0.543 0.176 0.791s0.276 0.472 0.479 0.654c0.203 0.183 0.442 0.321 0.701 0.407s0.534 0.116 0.806 0.091h1.154c0.272 0.027 0.547-0.004 0.807-0.089s0.499-0.224 0.703-0.406c0.204-0.183 0.367-0.406 0.48-0.655s0.173-0.519 0.176-0.793l-1.145-15.749c1.644-0.367 3.094-1.331 4.068-2.706s1.403-3.062 1.204-4.735-1.011-3.212-2.28-4.321c-1.269-1.108-2.904-1.706-4.588-1.677v-0.005zM30.196 0.001l-1.922 9.73h-1.441l-0.962-9.73h-0.962l-0.962 9.73h-1.441l-1.92-9.73h-0.962v12.65c0.026 0.281 0.161 0.541 0.377 0.724s0.495 0.272 0.777 0.25h3.003l-1.133 15.568c0.003 0.273 0.063 0.543 0.176 0.792s0.276 0.472 0.48 0.655c0.203 0.183 0.443 0.321 0.703 0.406s0.535 0.116 0.807 0.089h1.154c0.272 0.026 0.547-0.004 0.807-0.089s0.499-0.224 0.703-0.406c0.204-0.183 0.367-0.406 0.48-0.655s0.173-0.519 0.176-0.792l-1.133-15.568h3.003c0.281 0.022 0.56-0.068 0.776-0.249s0.352-0.441 0.378-0.723v-12.651h-0.962z"></path>
        </symbol>
        <symbol id="icon-house" viewBox="0 0 32 32">
            <path d="M32 12.8l-16-12.8-16 12.8v3.2h3.2v16h8v-6.4c0-1.273 0.506-2.494 1.406-3.394s2.121-1.406 3.394-1.406 2.494 0.506 3.394 1.406c0.9 0.9 1.406 2.121 1.406 3.394v6.4h8v-16h3.2v-3.2z"></path>
        </symbol>
        <symbol id="icon-list" viewBox="0 0 32 32">
            <path d="M4.923 22.595h-3.938c-0.13 0-0.259 0.026-0.379 0.076s-0.229 0.123-0.321 0.216-0.164 0.202-0.213 0.323c-0.049 0.121-0.073 0.25-0.072 0.38v3.938c0 0.261 0.104 0.512 0.288 0.696s0.435 0.288 0.696 0.288h3.938c0.261 0 0.512-0.104 0.696-0.288s0.288-0.435 0.288-0.696v-3.938c0.001-0.13-0.023-0.259-0.072-0.38s-0.121-0.23-0.213-0.323c-0.092-0.092-0.201-0.166-0.321-0.216s-0.249-0.076-0.379-0.076zM4.923 2.872h-3.938c-0.261 0-0.512 0.104-0.696 0.288s-0.288 0.435-0.288 0.696v3.938c0 0.261 0.104 0.512 0.288 0.696s0.435 0.288 0.696 0.288h3.938c0.261 0 0.512-0.104 0.696-0.288s0.288-0.435 0.288-0.696v-3.938c0-0.261-0.104-0.512-0.288-0.696s-0.435-0.288-0.696-0.288zM4.923 12.734h-3.938c-0.261 0-0.512 0.104-0.696 0.288s-0.288 0.435-0.288 0.696v3.938c0 0.261 0.104 0.512 0.288 0.696s0.435 0.288 0.696 0.288h3.938c0.261 0 0.512-0.104 0.696-0.288s0.288-0.435 0.288-0.696v-3.938c0-0.261-0.104-0.512-0.288-0.696s-0.435-0.288-0.696-0.288zM30.572 23.59h-19.724c-0.261 0-0.512 0.104-0.696 0.288s-0.288 0.435-0.288 0.696v1.969c0 0.129 0.025 0.257 0.075 0.377s0.122 0.228 0.213 0.319c0.091 0.091 0.2 0.164 0.319 0.213s0.248 0.075 0.377 0.075h19.724c0.129 0 0.257-0.025 0.377-0.075s0.228-0.122 0.319-0.213c0.091-0.091 0.164-0.2 0.213-0.319s0.075-0.247 0.075-0.377v-1.969c0-0.129-0.026-0.257-0.075-0.377s-0.122-0.228-0.213-0.319c-0.091-0.091-0.2-0.164-0.319-0.213s-0.248-0.075-0.377-0.075zM30.572 3.866h-19.724c-0.261 0-0.512 0.104-0.696 0.288s-0.288 0.435-0.288 0.696v1.969c0 0.261 0.104 0.512 0.288 0.696s0.435 0.288 0.696 0.288h19.724c0.129 0 0.257-0.025 0.377-0.075s0.228-0.122 0.319-0.213c0.091-0.091 0.164-0.2 0.213-0.319s0.075-0.247 0.075-0.377v-1.969c0.001-0.13-0.024-0.259-0.073-0.379s-0.121-0.23-0.213-0.322c-0.091-0.092-0.2-0.166-0.32-0.216s-0.249-0.076-0.379-0.076v0.008zM30.572 13.729h-19.724c-0.261 0-0.512 0.104-0.696 0.288s-0.288 0.435-0.288 0.696v1.969c0 0.261 0.104 0.512 0.288 0.696s0.435 0.288 0.696 0.288h19.724c0.129 0 0.257-0.025 0.377-0.075s0.228-0.122 0.319-0.213c0.091-0.091 0.164-0.2 0.213-0.319s0.075-0.247 0.075-0.377v-1.969c0.001-0.13-0.024-0.259-0.073-0.379s-0.121-0.23-0.213-0.322c-0.091-0.092-0.2-0.166-0.32-0.216s-0.249-0.076-0.379-0.076v0.008z"></path>
        </symbol>
        <symbol id="icon-lock" viewBox="0 0 24 32">
            <path d="M21.333 10.667h-1.524v-3.048c0-4.206-3.413-7.619-7.619-7.619s-7.619 3.413-7.619 7.619v3.048h-1.524c-1.676 0-3.048 1.371-3.048 3.048v15.238c0 1.676 1.371 3.048 3.048 3.048h18.286c1.676 0 3.048-1.371 3.048-3.048v-15.238c0-1.676-1.371-3.048-3.048-3.048zM12.19 24.381c-1.676 0-3.048-1.371-3.048-3.048s1.371-3.048 3.048-3.048c1.676 0 3.048 1.371 3.048 3.048s-1.371 3.048-3.048 3.048zM16.914 10.667h-9.448v-3.048c0-2.606 2.118-4.724 4.724-4.724s4.724 2.118 4.724 4.724v3.048z"></path>
        </symbol>
        <symbol id="icon-mail" viewBox="0 0 32 32">
            <path d="M28.8 3.2h-25.6c-1.76 0-3.184 1.44-3.184 3.2l-0.016 19.2c0 1.76 1.44 3.2 3.2 3.2h25.6c1.76 0 3.2-1.44 3.2-3.2v-19.2c0-1.76-1.44-3.2-3.2-3.2zM28.8 9.6l-12.8 8-12.8-8v-3.2l12.8 8 12.8-8v3.2z"></path>
        </symbol>
        <symbol id="icon-menu" viewBox="0 0 32 32">
            <path d="M0 14.015h23.814v3.969h-23.814v-3.969zM0 4.093h31.752v3.969h-31.752v-3.969zM0 27.907h14.358v-3.969h-14.358v3.969z"></path>
        </symbol>
        <symbol id="icon-messanger" viewBox="0 0 32 32">
            <path d="M17.507 19.861l-4.096-4.256-7.891 4.363 8.65-9.178 4.096 4.256 7.888-4.363-8.646 9.178zM15.838 0c-8.747 0-15.838 6.63-15.838 14.811 0 4.653 2.294 8.805 5.885 11.52v5.669l5.405-2.998c1.44 0.403 2.968 0.621 4.549 0.621 8.749 0 15.84-6.632 15.84-14.811 0-8.181-7.091-14.811-15.84-14.811z"></path>
        </symbol>
        <symbol id="icon-minus-circle" viewBox="0 0 32 32">
            <path d="M16 0c-8.836 0-16 7.164-16 16s7.164 16 16 16c8.836 0 16-7.164 16-16s-7.164-16-16-16zM22.857 16.857c0 0.157-0.129 0.286-0.286 0.286h-13.143c-0.157 0-0.286-0.129-0.286-0.286v-1.714c0-0.157 0.129-0.286 0.286-0.286h13.143c0.157 0 0.286 0.129 0.286 0.286v1.714z"></path>
        </symbol>
        <symbol id="icon-offer" viewBox="0 0 32 32">
            <path d="M27.209 15.98l2.060-3.561-3.561-2.059v-4.105h-4.104l-2.058-3.561-3.564 2.060-3.563-2.062-2.059 3.563h-4.103v4.103l-3.562 2.059 2.061 3.563-2.062 3.563 3.561 2.058v4.103h4.105l2.059 3.562 3.562-2.061 3.565 2.060 2.057-3.562h4.104v-4.103l3.562-2.059-2.060-3.563zM19.037 31.746l-3.056-1.766-3.053 1.766c-0.246 0.142-0.523 0.216-0.802 0.216-0.281-0.002-0.556-0.076-0.799-0.216s-0.445-0.341-0.587-0.584l-1.766-3.056h-3.52c-0.424 0-0.831-0.169-1.131-0.469s-0.469-0.707-0.469-1.131v-3.518l-3.056-1.766c-0.366-0.214-0.633-0.564-0.742-0.974s-0.052-0.846 0.159-1.214l1.766-3.053-1.766-3.053c-0.106-0.182-0.175-0.383-0.203-0.591s-0.014-0.42 0.040-0.624c0.054-0.203 0.148-0.394 0.276-0.561s0.288-0.307 0.47-0.412l3.056-1.766v-3.518c0-0.424 0.169-0.831 0.469-1.131s0.707-0.469 1.131-0.469h3.518l1.766-3.056c0.212-0.367 0.562-0.636 0.972-0.745s0.847-0.052 1.214 0.16l3.056 1.768 3.056-1.766c0.182-0.106 0.383-0.174 0.591-0.202s0.42-0.013 0.623 0.042c0.409 0.111 0.758 0.379 0.971 0.746l1.765 3.054h3.518c0.424 0 0.831 0.169 1.131 0.469s0.469 0.707 0.469 1.131v3.52l3.056 1.766c0.367 0.212 0.635 0.562 0.744 0.972s0.052 0.846-0.16 1.214l-1.766 3.053 1.765 3.053c0.105 0.182 0.174 0.383 0.202 0.591s0.014 0.42-0.040 0.623c-0.054 0.203-0.148 0.394-0.276 0.56s-0.287 0.307-0.469 0.412l-3.056 1.766v3.518c0 0.424-0.169 0.831-0.469 1.131s-0.707 0.469-1.131 0.469h-3.518l-1.765 3.056c-0.213 0.367-0.562 0.634-0.972 0.744s-0.846 0.052-1.214-0.16z"></path>
            <path d="M11.981 7.965c0.637 0 1.247 0.253 1.697 0.704s0.703 1.061 0.703 1.698c-0 0.637-0.253 1.247-0.704 1.697s-1.061 0.703-1.698 0.703c-0.637-0-1.247-0.253-1.697-0.704s-0.703-1.061-0.703-1.698c0-0.637 0.253-1.247 0.704-1.697s1.061-0.703 1.698-0.703zM12.461 23.325l-2.56-1.918 9.6-12.8 2.56 1.918-9.6 12.8zM19.981 23.965c-0.315-0-0.627-0.062-0.919-0.183s-0.556-0.298-0.779-0.521c-0.223-0.223-0.4-0.488-0.52-0.779s-0.183-0.604-0.182-0.919c0-0.315 0.062-0.627 0.183-0.919s0.298-0.556 0.521-0.779c0.223-0.223 0.488-0.4 0.779-0.52s0.604-0.183 0.919-0.182c0.637 0 1.247 0.253 1.697 0.704s0.703 1.061 0.703 1.698c-0 0.637-0.253 1.247-0.704 1.697s-1.061 0.703-1.698 0.703z"></path>
        </symbol>
        <symbol id="icon-payment-card" viewBox="0 0 32 32">
            <path d="M28.8 3.2h-25.6c-1.776 0-3.184 1.424-3.184 3.2l-0.016 19.2c0 1.776 1.424 3.2 3.2 3.2h25.6c1.776 0 3.2-1.424 3.2-3.2v-19.2c0-1.776-1.424-3.2-3.2-3.2zM28.8 25.6h-25.6v-9.6h25.6v9.6zM28.8 9.6h-25.6v-3.2h25.6v3.2z"></path>
        </symbol>
        <symbol id="icon-phone" viewBox="0 0 32 32">
            <path d="M31.087 22.612l-7-3c-0.299-0.127-0.631-0.154-0.947-0.077s-0.597 0.256-0.803 0.508l-3.1 3.788c-4.865-2.294-8.781-6.209-11.075-11.075l3.788-3.1c0.252-0.205 0.431-0.487 0.509-0.803s0.051-0.648-0.078-0.947l-3-7c-0.141-0.322-0.389-0.585-0.703-0.744s-0.673-0.203-1.016-0.125l-6.5 1.5c-0.331 0.076-0.625 0.262-0.837 0.528s-0.326 0.595-0.326 0.934c0 16.032 12.994 29.001 29.001 29.001 0.339 0 0.669-0.115 0.934-0.326s0.452-0.506 0.528-0.837l1.5-6.5c0.077-0.344 0.032-0.705-0.127-1.020s-0.424-0.564-0.748-0.705z"></path>
        </symbol>
        <symbol id="icon-plus-circle" viewBox="0 0 32 32">
            <path d="M16 0c-8.836 0-16 7.164-16 16s7.164 16 16 16c8.836 0 16-7.164 16-16s-7.164-16-16-16zM22.857 16.857c0 0.157-0.129 0.286-0.286 0.286h-5.429v5.429c0 0.157-0.129 0.286-0.286 0.286h-1.714c-0.157 0-0.286-0.129-0.286-0.286v-5.429h-5.429c-0.157 0-0.286-0.129-0.286-0.286v-1.714c0-0.157 0.129-0.286 0.286-0.286h5.429v-5.429c0-0.157 0.129-0.286 0.286-0.286h1.714c0.157 0 0.286 0.129 0.286 0.286v5.429h5.429c0.157 0 0.286 0.129 0.286 0.286v1.714z"></path>
        </symbol>
        <symbol id="icon-point" viewBox="0 0 32 32">
            <path d="M16 15.2c-1.061 0-2.078-0.421-2.828-1.172s-1.172-1.768-1.172-2.828 0.421-2.078 1.172-2.828c0.75-0.75 1.768-1.172 2.828-1.172s2.078 0.421 2.828 1.172c0.75 0.75 1.172 1.768 1.172 2.828 0 0.525-0.103 1.045-0.304 1.531s-0.496 0.926-0.867 1.298c-0.371 0.371-0.812 0.666-1.298 0.867s-1.005 0.304-1.531 0.304zM16 0c-2.97 0-5.819 1.18-7.92 3.28s-3.28 4.949-3.28 7.92c0 8.4 11.2 20.8 11.2 20.8s11.2-12.4 11.2-20.8c0-2.97-1.18-5.819-3.28-7.92s-4.949-3.28-7.92-3.28z"></path>
        </symbol>
        <symbol id="icon-search" viewBox="0 0 32 32">
            <path d="M30.634 28.177l-5.881-5.864c1.898-2.417 2.927-5.403 2.923-8.476 0-2.737-0.812-5.412-2.332-7.688s-3.682-4.049-6.21-5.097c-2.529-1.047-5.311-1.321-7.995-0.787s-5.15 1.852-7.085 3.787c-1.935 1.935-3.253 4.401-3.787 7.085s-0.26 5.467 0.787 7.995c1.047 2.529 2.821 4.69 5.097 6.21s4.951 2.332 7.688 2.332c3.073 0.004 6.058-1.026 8.476-2.923l5.864 5.881c0.161 0.162 0.352 0.291 0.563 0.379s0.437 0.133 0.665 0.133 0.454-0.045 0.665-0.133c0.211-0.088 0.402-0.216 0.563-0.379 0.162-0.161 0.291-0.352 0.379-0.563s0.133-0.437 0.133-0.665-0.045-0.454-0.133-0.665c-0.088-0.211-0.216-0.402-0.379-0.563zM3.459 13.838c0-2.053 0.609-4.059 1.749-5.766s2.761-3.037 4.658-3.822 3.983-0.991 5.996-0.591c2.013 0.4 3.863 1.389 5.314 2.84s2.44 3.301 2.84 5.314c0.401 2.013 0.195 4.1-0.591 5.996s-2.116 3.517-3.822 4.658c-1.707 1.14-3.713 1.749-5.766 1.749-2.753 0-5.392-1.093-7.339-3.040s-3.040-4.586-3.040-7.339z"></path>
        </symbol>
        <symbol id="icon-settings" viewBox="0 0 32 32">
            <path d="M31.573 13.568l-3.573-1.067c-0.247-0.863-0.587-1.696-1.013-2.485l1.749-3.275c0.066-0.124 0.090-0.265 0.069-0.403s-0.086-0.266-0.186-0.365l-2.549-2.56c-0.098-0.1-0.226-0.165-0.365-0.186s-0.28 0.003-0.403 0.069l-3.253 1.739c-0.797-0.447-1.641-0.805-2.517-1.067l-1.067-3.531c-0.045-0.13-0.13-0.243-0.243-0.321s-0.248-0.119-0.386-0.116h-3.605c-0.139 0.001-0.273 0.045-0.384 0.128s-0.193 0.198-0.234 0.331l-1.067 3.52c-0.883 0.26-1.735 0.618-2.539 1.067l-3.2-1.728c-0.124-0.066-0.265-0.090-0.403-0.069s-0.266 0.086-0.365 0.186l-2.592 2.528c-0.1 0.098-0.165 0.226-0.186 0.365s0.003 0.28 0.069 0.403l1.728 3.2c-0.448 0.801-0.806 1.648-1.067 2.528l-3.531 1.067c-0.132 0.041-0.248 0.123-0.331 0.234s-0.127 0.246-0.128 0.384v3.605c0.001 0.138 0.045 0.273 0.128 0.384s0.198 0.193 0.331 0.234l3.552 1.067c0.264 0.865 0.622 1.698 1.067 2.485l-1.749 3.349c-0.066 0.124-0.090 0.265-0.069 0.403s0.086 0.266 0.186 0.365l2.549 2.549c0.098 0.1 0.226 0.165 0.365 0.186s0.28-0.003 0.403-0.069l3.296-1.76c0.78 0.421 1.602 0.757 2.453 1.003l1.067 3.595c0.041 0.132 0.123 0.248 0.234 0.331s0.246 0.127 0.384 0.128h3.605c0.139-0.001 0.273-0.045 0.384-0.128s0.193-0.198 0.234-0.331l1.067-3.605c0.844-0.247 1.659-0.583 2.432-1.003l3.317 1.771c0.124 0.066 0.265 0.090 0.403 0.069s0.266-0.086 0.365-0.186l2.549-2.549c0.1-0.098 0.165-0.226 0.186-0.365s-0.003-0.28-0.069-0.403l-1.771-3.307c0.424-0.776 0.764-1.595 1.013-2.443l3.595-1.067c0.132-0.041 0.248-0.123 0.331-0.234s0.127-0.246 0.128-0.384v-3.637c0.006-0.133-0.028-0.264-0.099-0.377s-0.174-0.201-0.296-0.253zM16.032 21.867c-1.16 0-2.295-0.344-3.259-0.989s-1.717-1.561-2.161-2.633c-0.444-1.072-0.56-2.252-0.334-3.39s0.785-2.183 1.606-3.004c0.82-0.82 1.866-1.379 3.004-1.606s2.318-0.11 3.39 0.334c1.072 0.444 1.988 1.196 2.633 2.161s0.989 2.099 0.989 3.259c0 1.556-0.618 3.048-1.718 4.148s-2.592 1.718-4.148 1.718z"></path>
        </symbol>
        <symbol id="icon-star" viewBox="0 0 32 32">
            <path d="M24.838 30.807c-0.256 0.001-0.508-0.059-0.736-0.176l-8.16-4.272-8.16 4.272c-0.265 0.139-0.564 0.202-0.862 0.18s-0.585-0.127-0.827-0.304c-0.242-0.177-0.429-0.418-0.54-0.695s-0.143-0.581-0.091-0.876l1.6-9.008-6.592-6.4c-0.206-0.205-0.352-0.463-0.422-0.744s-0.063-0.578 0.022-0.856c0.093-0.284 0.263-0.537 0.492-0.729s0.507-0.317 0.804-0.359l9.12-1.328 4.016-8.208c0.131-0.27 0.336-0.499 0.59-0.658s0.549-0.244 0.85-0.244c0.301 0 0.595 0.085 0.85 0.244s0.459 0.388 0.59 0.658l4.064 8.192 9.12 1.328c0.296 0.042 0.574 0.166 0.804 0.359s0.4 0.445 0.492 0.729c0.085 0.278 0.092 0.574 0.022 0.856s-0.216 0.539-0.422 0.744l-6.592 6.4 1.6 9.008c0.057 0.3 0.027 0.61-0.086 0.894s-0.306 0.529-0.554 0.706c-0.29 0.203-0.639 0.304-0.992 0.288z"></path>
        </symbol>
        <symbol id="icon-sun" viewBox="0 0 32 32">
            <path d="M16.004 9.999c-1.187 0-2.347 0.353-3.334 1.012s-1.756 1.597-2.21 2.693c-0.454 1.096-0.573 2.303-0.341 3.467s0.804 2.233 1.643 3.072c0.839 0.839 1.909 1.41 3.073 1.642s2.371 0.112 3.468-0.342c1.097-0.454 2.034-1.223 2.693-2.21s1.011-2.147 1.011-3.333c-0.003-1.591-0.636-3.116-1.762-4.24s-2.651-1.758-4.242-1.76zM31.41 15.030l-5.92-2.955 2.095-6.276c0.064-0.191 0.074-0.396 0.028-0.591s-0.146-0.375-0.288-0.517c-0.142-0.142-0.322-0.242-0.517-0.288s-0.401-0.036-0.592 0.028l-6.278 2.092-2.965-5.924c-0.090-0.18-0.228-0.332-0.399-0.438s-0.369-0.162-0.57-0.162c-0.201 0-0.399 0.056-0.57 0.162s-0.309 0.257-0.399 0.438l-2.956 5.918-6.285-2.094c-0.191-0.064-0.396-0.074-0.592-0.028s-0.375 0.146-0.517 0.288c-0.142 0.142-0.242 0.321-0.288 0.517s-0.036 0.401 0.028 0.591l2.095 6.276-5.92 2.962c-0.18 0.090-0.332 0.228-0.438 0.399s-0.162 0.368-0.162 0.57c0 0.201 0.056 0.399 0.162 0.57s0.258 0.309 0.438 0.399l5.92 2.956-2.095 6.283c-0.064 0.191-0.074 0.395-0.028 0.591s0.146 0.375 0.288 0.517c0.142 0.142 0.322 0.242 0.517 0.288s0.401 0.036 0.592-0.028l6.278-2.094 2.957 5.918c0.090 0.18 0.228 0.332 0.399 0.438s0.369 0.162 0.57 0.162 0.399-0.056 0.57-0.162c0.171-0.106 0.309-0.257 0.399-0.438l2.949-5.918 6.278 2.094c0.191 0.064 0.396 0.074 0.592 0.028s0.375-0.146 0.517-0.288c0.142-0.142 0.242-0.321 0.288-0.517s0.036-0.401-0.028-0.591l-2.095-6.276 5.92-2.956c0.182-0.088 0.336-0.226 0.444-0.397s0.166-0.369 0.167-0.571c0.001-0.202-0.054-0.401-0.16-0.573s-0.258-0.312-0.439-0.402l0.009-0.002zM21.663 21.656c-1.119 1.119-2.545 1.881-4.098 2.189s-3.161 0.15-4.624-0.455-2.712-1.631-3.591-2.947c-0.879-1.316-1.349-2.862-1.349-4.445s0.469-3.129 1.349-4.445c0.879-1.316 2.129-2.341 3.591-2.947s3.071-0.764 4.624-0.455c1.552 0.309 2.978 1.071 4.098 2.189 0.743 0.743 1.333 1.625 1.735 2.595s0.609 2.011 0.609 3.062-0.207 2.091-0.609 3.061c-0.402 0.971-0.992 1.853-1.735 2.595z"></path>
        </symbol>
        <symbol id="icon-ticket" viewBox="0 0 32 32">
            <path d="M3.2 3.2c-0.849 0-1.663 0.337-2.263 0.937s-0.937 1.414-0.937 2.263v6.4c0.849 0 1.663 0.337 2.263 0.937s0.937 1.414 0.937 2.263-0.337 1.663-0.937 2.263c-0.6 0.6-1.414 0.937-2.263 0.937v6.4c0 0.849 0.337 1.663 0.937 2.263s1.414 0.937 2.263 0.937h25.6c0.849 0 1.663-0.337 2.263-0.937s0.937-1.414 0.937-2.263v-6.4c-0.849 0-1.663-0.337-2.263-0.937s-0.937-1.414-0.937-2.263 0.337-1.663 0.937-2.263c0.6-0.6 1.414-0.937 2.263-0.937v-6.4c0-0.849-0.337-1.663-0.937-2.263s-1.414-0.937-2.263-0.937h-25.6zM21.6 8l2.4 2.4-13.6 13.6-2.4-2.4 13.6-13.6zM10.896 8.064c1.568 0 2.832 1.264 2.832 2.832 0 0.751-0.298 1.471-0.829 2.003s-1.251 0.829-2.003 0.829c-1.568 0-2.832-1.264-2.832-2.832 0-0.751 0.298-1.471 0.829-2.003s1.251-0.829 2.003-0.829zM21.104 18.272c1.568 0 2.832 1.264 2.832 2.832 0 0.751-0.298 1.471-0.829 2.003s-1.251 0.829-2.003 0.829c-1.568 0-2.832-1.264-2.832-2.832 0-0.751 0.298-1.471 0.829-2.003s1.251-0.829 2.003-0.829z"></path>
        </symbol>
        <symbol id="icon-user" viewBox="0 0 32 32">
            <path d="M16 0c-8.832 0-16 7.168-16 16s7.168 16 16 16c8.832 0 16-7.168 16-16s-7.168-16-16-16zM8.112 26.048c0.688-1.44 4.88-2.848 7.888-2.848s7.216 1.408 7.888 2.848c-2.176 1.728-4.912 2.752-7.888 2.752s-5.712-1.024-7.888-2.752zM26.176 23.728c-2.288-2.784-7.84-3.728-10.176-3.728s-7.888 0.944-10.176 3.728c-1.7-2.218-2.622-4.934-2.624-7.728 0-7.056 5.744-12.8 12.8-12.8s12.8 5.744 12.8 12.8c0 2.912-0.992 5.584-2.624 7.728zM16 6.4c-3.104 0-5.6 2.496-5.6 5.6s2.496 5.6 5.6 5.6c3.104 0 5.6-2.496 5.6-5.6s-2.496-5.6-5.6-5.6zM16 14.4c-1.328 0-2.4-1.072-2.4-2.4s1.072-2.4 2.4-2.4c1.328 0 2.4 1.072 2.4 2.4s-1.072 2.4-2.4 2.4z"></path>
        </symbol>
        <symbol id="icon-zoom" viewBox="0 0 32 32">
            <path d="M18.994 11.994v2c-0 0.199-0.080 0.389-0.22 0.53s-0.331 0.22-0.53 0.22h-3.496v3.501c-0.001 0.199-0.080 0.389-0.22 0.53s-0.331 0.22-0.53 0.22h-2.006c-0.199-0-0.389-0.080-0.53-0.22s-0.22-0.331-0.22-0.53v-3.495h-3.499c-0.199-0.001-0.389-0.080-0.53-0.22s-0.22-0.331-0.22-0.53v-2.005c0-0.199 0.080-0.389 0.22-0.53s0.331-0.22 0.53-0.22h3.499v-3.499c0.001-0.199 0.080-0.389 0.22-0.53s0.331-0.22 0.53-0.22h2c0.099-0 0.197 0.019 0.288 0.056s0.175 0.093 0.245 0.162 0.126 0.153 0.164 0.244c0.038 0.091 0.058 0.189 0.058 0.288v3.499h3.501c0.198 0.002 0.387 0.082 0.527 0.222s0.218 0.33 0.218 0.528zM31.56 29.79l-1.769 1.769c-0.139 0.14-0.304 0.251-0.486 0.326s-0.377 0.115-0.574 0.115-0.392-0.039-0.574-0.115c-0.182-0.076-0.347-0.187-0.486-0.326l-6.239-6.231c-0.14-0.14-0.25-0.307-0.325-0.49s-0.113-0.379-0.112-0.577v-1.019c-2.609 2.036-5.896 3-9.191 2.695s-6.35-1.854-8.542-4.332-3.356-5.7-3.254-9.007c0.102-3.307 1.461-6.451 3.801-8.791s5.484-3.699 8.792-3.8c3.308-0.102 6.529 1.062 9.009 3.254s4.029 5.246 4.333 8.541c0.304 3.295-0.66 6.582-2.696 9.19h1.019c0.198-0.001 0.394 0.037 0.577 0.112s0.35 0.186 0.49 0.325l6.232 6.231c0.28 0.284 0.437 0.667 0.437 1.066s-0.159 0.781-0.44 1.064zM21.496 12.995c0-1.681-0.498-3.325-1.433-4.722s-2.262-2.487-3.815-3.131-3.263-0.812-4.912-0.484c-1.649 0.328-3.164 1.138-4.353 2.326s-1.999 2.703-2.327 4.352c-0.328 1.649-0.16 3.358 0.484 4.911s1.733 2.881 3.131 3.815c1.398 0.934 3.042 1.433 4.723 1.433 1.117 0.001 2.222-0.219 3.254-0.646s1.969-1.053 2.758-1.843c0.789-0.789 1.415-1.727 1.842-2.758s0.646-2.137 0.645-3.253h0.002z"></path>
        </symbol>
        <symbol id="icon-logo" viewBox="0 0 23 32">
            <path d="M12.284 4.406c-0.405 0.55-0.922-0.642-1.090 0-0.032 0.12-0.054 0.231-0.074 0.337l-0.015-0.022c-0.388-0.532-0.713 0.063-1.285-0.292-0.106-0.066 0.905-0.315 0.781-0.305 0 0-0.905-0.424-1.399-1.118s-0.401-1.956-0.145-2.924l0.434 0.126c1.124 0.327 2.307 1.295 2.696 2.078 0.45 0.906 0.093 2.111 0.093 2.111-0.055 0.049 0.044-0.047 0.002 0.010z"></path>
            <path d="M9.491 0.719c0.030-0.028 0.069-0.042 0.109-0.040s0.077 0.021 0.104 0.052l0.263 0.305c0.604 0.705 1.061 1.536 1.34 2.437 0.012 0.040 0.009 0.083-0.009 0.12s-0.050 0.066-0.088 0.078c-0.038 0.013-0.079 0.009-0.115-0.010s-0.063-0.052-0.075-0.092c-0.264-0.86-0.699-1.651-1.274-2.324l-0.263-0.305c-0.027-0.031-0.041-0.071-0.040-0.113s0.019-0.081 0.048-0.11z"></path>
            <path d="M11.416 22.952c5.211 0 9.435-4.427 9.435-9.888s-4.224-9.888-9.435-9.888c-5.211 0-9.435 4.427-9.435 9.888s4.224 9.888 9.435 9.888z"></path>
            <path d="M14.345 22.468c0.232-0.080 0.464-0.167 0.683-0.265-2.312 0.596-4.754 0.254-6.836-0.957s-3.649-3.203-4.388-5.576c-0.739-2.372-0.595-4.95 0.404-7.215s2.778-4.051 4.98-5c-0.234 0.060-0.467 0.13-0.701 0.209-2.379 0.814-4.353 2.585-5.486 4.924s-1.333 5.053-0.557 7.547 2.467 4.561 4.699 5.749c2.232 1.188 4.822 1.397 7.201 0.583z"></path>
            <path d="M16.926 17.216c0.151-0.027 0.306-0.021 0.455 0.019 0.143 0.040 0.278 0.106 0.399 0.195 0.122 0.090 0.226 0.203 0.306 0.334 0.084 0.137 0.14 0.29 0.164 0.45 0.023 0.16 0.016 0.324-0.022 0.481s-0.105 0.305-0.198 0.434c-1.384 1.609-3.076 2.586-5.077 2.933-2.373 0.41-4.534-0.116-6.482-1.58s-3.118-3.439-3.509-5.925c-0.39-2.48 0.113-4.74 1.509-6.781s3.28-3.271 5.652-3.69c2.030-0.351 3.973 0.033 5.83 1.151 0.119 0.089 0.218 0.204 0.292 0.336s0.121 0.279 0.137 0.431c0.027 0.161 0.023 0.327-0.011 0.486-0.035 0.151-0.099 0.293-0.186 0.418-0.087 0.127-0.198 0.234-0.325 0.315-0.13 0.085-0.275 0.143-0.427 0.169-0.293 0.044-0.591-0.028-0.835-0.202-0.61-0.354-1.272-0.598-1.958-0.723-0.709-0.127-1.433-0.127-2.141 0-1.744 0.302-3.132 1.207-4.165 2.717-1.020 1.491-1.387 3.151-1.099 4.979s1.144 3.28 2.569 4.356c1.431 1.076 3.023 1.462 4.774 1.159 1.439-0.229 2.754-0.984 3.712-2.131 0.175-0.174 0.396-0.289 0.634-0.332z"></path>
            <path d="M15.067 15.26c0.090-0.029 0.185-0.037 0.278-0.023 0.088 0.012 0.174 0.040 0.252 0.084s0.149 0.104 0.206 0.176c0.060 0.075 0.105 0.163 0.13 0.258s0.033 0.192 0.021 0.289-0.041 0.19-0.088 0.275c-0.678 1.040-1.682 1.799-2.837 2.146-0.661 0.204-1.354 0.269-2.039 0.192s-1.349-0.295-1.954-0.642c-0.605-0.347-1.138-0.815-1.57-1.378s-0.753-1.21-0.946-1.903c-0.389-1.399-0.233-2.903 0.434-4.181s1.792-2.227 3.126-2.638c1.19-0.366 2.381-0.285 3.572 0.242 0.077 0.045 0.145 0.106 0.198 0.18s0.091 0.158 0.112 0.248c0.028 0.094 0.038 0.194 0.028 0.292-0.010 0.093-0.037 0.182-0.080 0.265-0.044 0.082-0.102 0.155-0.173 0.214-0.073 0.061-0.157 0.106-0.247 0.133-0.172 0.049-0.356 0.029-0.514-0.057-0.391-0.167-0.806-0.264-1.228-0.287-0.433-0.022-0.867 0.034-1.283 0.164-0.486 0.148-0.94 0.396-1.335 0.728s-0.723 0.743-0.966 1.209c-0.243 0.466-0.396 0.977-0.45 1.505s-0.008 1.062 0.135 1.571c0.204 0.731 0.602 1.386 1.146 1.891s1.213 0.838 1.93 0.961c0.717 0.123 1.453 0.032 2.122-0.264s1.246-0.784 1.662-1.408c0.093-0.115 0.217-0.198 0.355-0.24z"></path>
            <path d="M0.385 25.046c1.079-1.286 4.381-0.806 6.114-1.993 0.371-0.252 0.527-0.55 0.455 0.237-0.146 1.334-1.777 1.868-2.848 1.899-0.339 0.7-1.392 5.92-0.516 6.214 0.116 0.060 0.238 0.031 0.256 0.116 0.015 0.372-1.376 0.875-1.662-0.594-0.173-1.041-0.093-5.058 1.012-5.566-0.92 0.012-1.763 0.121-2.064 0.584-0.236 0.398 0.159 1.053 0.73 0.973 0.32-0.060 0.522-0.195 0.499-0.060-0.029 0.213-0.743 1.050-1.51 0.658-0.868-0.398-1.144-1.639-0.467-2.466z"></path>
            <path d="M6.024 30.214c-0.742-0.032-0.796-0.888-0.749-1.517 0.026-0.308 0.069-0.614 0.128-0.917-0.152 0.074-0.312 0.128-0.476 0.161-0.257 0.036-0.514-0.044-0.602-0.327-0.054-0.201-0.086-0.65 0.043-0.875 0.155-0.298 0.557-0.083 0.582 0.081 0.084 0.454-0.589 0.995 0.65-0.258 0.106-0.118 0.24-0.203 0.389-0.248 0.121-0.020 0.245 0.005 0.35 0.071s0.185 0.168 0.226 0.289c0.105 0.395-0.243 1.743-0.246 2.226 0.527-0.469 2.030-2.153 2.326-2.361 0.736-0.076-1.599 3.693-2.62 3.675z"></path>
            <path d="M12.337 28.030c-0.263 0.432-0.597 0.926-1.088 1.135-0.339 0.129-0.665-0.033-0.862-0.342-0.196 0.218-0.443 0.378-0.717 0.462-0.19 0.037-0.386 0.008-0.558-0.084s-0.31-0.242-0.392-0.425c-0.371-0.875 0.162-3.29 1.552-3.031 0.068 0.014 0.133 0.036 0.195 0.068 0.040-0.222 0.113-0.437 0.217-0.635 0.296-0.431 0.94 0 1.011 0.433 0 0.088 0 0.169 0 0.26-0.076 0.655-0.313 1.277-0.38 2.009 0 0.008 0 0.018 0 0.027 0.595-0.549 1.011-1.287 1.563-1.95 0.296-0.359 0.557-0.63 0.658-0.573 0.308 0.295-1.027 2.381-1.198 2.647zM10.25 26.609c0.101-0.311 0.16-0.584 0.031-0.553-0.611 0.212-0.835 1.162-0.835 1.78-0.004 0.111 0.009 0.223 0.039 0.33h0.008c0.336-0.424 0.576-0.993 0.757-1.556z"></path>
            <path d="M16.735 24.166c-0.127 0.846-0.631 3.369-1.662 3.837-0.583 0.224-1.004-0.363-1.066-0.526-0.144-0.376-0.471-1.917-0.354-2.653 0.058-0.354 0.557-0.826 0.787 0 0.13 0.542 0.207 1.459 0.399 1.979 0.055-0.103 0.104-0.187 0.16-0.281 0.464-0.785 0.803-1.647 1.336-2.547 0.416-0.698 0.5-0.513 0.401 0.192z"></path>
            <path d="M20.705 25.529c-0.411 0.53-0.86 1.008-1.377 1.332-0.907 0.486-1.812 0.185-1.937-1.1-0.072-1.128 0.442-2.114 1.244-2.499 0.781-0.326 1.763-0.2 1.364 1.017-0.317 0.686-0.87 1.082-1.616 1.070 0.006 0.091 0.029 0.18 0.067 0.262 0.442 0.868 2.392-1.303 3.011-2.162 0.018-0.027 0.044-0.047 0.074-0.058s0.062-0.011 0.092-0.001c0.238 0.333-0.729 1.859-0.922 2.139zM18.397 25.146c0.174-0.177 0.54-0.486 0.661-0.636 1.089-1.324-0.559-0.4-0.661 0.636z"></path>
            <path d="M22.657 26.661c0 0.088 0.011 0.167-0.009 0.195-0.223 0.108-0.528-0.184-0.73-0.475-0.336-0.473-0.388-1.050-0.331-1.638 0.142-1.619 0.514-3.242 0.65-4.912 0.021-0.247 0.249-0.034 0.322 0.064 0.251 0.359 0.365 1.173 0.38 1.362 0.16 1.76-0.486 3.342-0.281 5.404z"></path>
        </symbol>
        <symbol id="icon-languages" viewBox="0 0 32 32">
            <path d="M15.984 0c-8.832 0-15.984 7.168-15.984 16s7.152 16 15.984 16c8.848 0 16.016-7.168 16.016-16s-7.168-16-16.016-16zM27.072 9.6h-4.72c-0.501-1.982-1.242-3.895-2.208-5.696 2.919 1.005 5.378 3.027 6.928 5.696zM16 3.264c1.328 1.92 2.368 4.048 3.056 6.336h-6.112c0.688-2.288 1.728-4.416 3.056-6.336zM3.616 19.2c-0.256-1.024-0.416-2.096-0.416-3.2s0.16-2.176 0.416-3.2h5.408c-0.128 1.056-0.224 2.112-0.224 3.2s0.096 2.144 0.224 3.2h-5.408zM4.928 22.4h4.72c0.512 2 1.248 3.92 2.208 5.696-2.922-0.999-5.383-3.023-6.928-5.696zM9.648 9.6h-4.72c1.545-2.673 4.006-4.697 6.928-5.696-0.966 1.801-1.707 3.714-2.208 5.696zM16 28.736c-1.328-1.92-2.368-4.048-3.056-6.336h6.112c-0.688 2.288-1.728 4.416-3.056 6.336zM19.744 19.2h-7.488c-0.144-1.056-0.256-2.112-0.256-3.2s0.112-2.16 0.256-3.2h7.488c0.144 1.040 0.256 2.112 0.256 3.2s-0.112 2.144-0.256 3.2zM20.144 28.096c0.96-1.776 1.696-3.696 2.208-5.696h4.72c-1.55 2.669-4.009 4.691-6.928 5.696zM22.976 19.2c0.128-1.056 0.224-2.112 0.224-3.2s-0.096-2.144-0.224-3.2h5.408c0.256 1.024 0.416 2.096 0.416 3.2s-0.16 2.176-0.416 3.2h-5.408z"></path>
        </symbol>
    </defs>
</svg>